<?xml version="1.0" encoding="utf-8" standalone="no"?>
<!DOCTYPE svg PUBLIC "-//W3C//DTD SVG 1.1//EN"
  "http://www.w3.org/Graphics/SVG/1.1/DTD/svg11.dtd">
<svg xmlns:xlink="http://www.w3.org/1999/xlink" width="648pt" height="216pt" viewBox="0 0 648 216" xmlns="http://www.w3.org/2000/svg" version="1.1">
 <metadata>
  <rdf:RDF xmlns:dc="http://purl.org/dc/elements/1.1/" xmlns:cc="http://creativecommons.org/ns#" xmlns:rdf="http://www.w3.org/1999/02/22-rdf-syntax-ns#">
   <cc:Work>
    <dc:type rdf:resource="http://purl.org/dc/dcmitype/StillImage"/>
    <dc:date>2025-07-31T17:32:22.126684</dc:date>
    <dc:format>image/svg+xml</dc:format>
    <dc:creator>
     <cc:Agent>
      <dc:title>Matplotlib v3.8.3, https://matplotlib.org/</dc:title>
     </cc:Agent>
    </dc:creator>
   </cc:Work>
  </rdf:RDF>
 </metadata>
 <defs>
  <style type="text/css">*{stroke-linejoin: round; stroke-linecap: butt}</style>
 </defs>
 <g id="figure_1">
  <g id="patch_1">
   <path d="M 0 216 
L 648 216 
L 648 0 
L 0 0 
z
" style="fill: #ffffff"/>
  </g>
  <g id="axes_1">
   <g id="patch_2">
    <path d="M 55.47 166.98 
L 190.6425 166.98 
L 190.6425 28.08 
L 55.47 28.08 
z
" style="fill: #ffffff"/>
   </g>
   <g id="matplotlib.axis_1">
    <g id="xtick_1">
     <g id="line2d_1">
      <path d="M 115.158705 166.98 
L 115.158705 28.08 
" clip-path="url(#p8d454887a9)" style="fill: none; stroke: #cccccc; stroke-linecap: round"/>
     </g>
     <g id="text_1">
      <!-- $\mathdefault{10^{6}}$ -->
      <g style="fill: #262626" transform="translate(105.478705 184.838281) scale(0.11 -0.11)">
       <defs>
        <path id="DejaVuSans-31" d="M 794 531 
L 1825 531 
L 1825 4091 
L 703 3866 
L 703 4441 
L 1819 4666 
L 2450 4666 
L 2450 531 
L 3481 531 
L 3481 0 
L 794 0 
L 794 531 
z
" transform="scale(0.015625)"/>
        <path id="DejaVuSans-30" d="M 2034 4250 
Q 1547 4250 1301 3770 
Q 1056 3291 1056 2328 
Q 1056 1369 1301 889 
Q 1547 409 2034 409 
Q 2525 409 2770 889 
Q 3016 1369 3016 2328 
Q 3016 3291 2770 3770 
Q 2525 4250 2034 4250 
z
M 2034 4750 
Q 2819 4750 3233 4129 
Q 3647 3509 3647 2328 
Q 3647 1150 3233 529 
Q 2819 -91 2034 -91 
Q 1250 -91 836 529 
Q 422 1150 422 2328 
Q 422 3509 836 4129 
Q 1250 4750 2034 4750 
z
" transform="scale(0.015625)"/>
        <path id="DejaVuSans-36" d="M 2113 2584 
Q 1688 2584 1439 2293 
Q 1191 2003 1191 1497 
Q 1191 994 1439 701 
Q 1688 409 2113 409 
Q 2538 409 2786 701 
Q 3034 994 3034 1497 
Q 3034 2003 2786 2293 
Q 2538 2584 2113 2584 
z
M 3366 4563 
L 3366 3988 
Q 3128 4100 2886 4159 
Q 2644 4219 2406 4219 
Q 1781 4219 1451 3797 
Q 1122 3375 1075 2522 
Q 1259 2794 1537 2939 
Q 1816 3084 2150 3084 
Q 2853 3084 3261 2657 
Q 3669 2231 3669 1497 
Q 3669 778 3244 343 
Q 2819 -91 2113 -91 
Q 1303 -91 875 529 
Q 447 1150 447 2328 
Q 447 3434 972 4092 
Q 1497 4750 2381 4750 
Q 2619 4750 2861 4703 
Q 3103 4656 3366 4563 
z
" transform="scale(0.015625)"/>
       </defs>
       <use xlink:href="#DejaVuSans-31" transform="translate(0 0.765625)"/>
       <use xlink:href="#DejaVuSans-30" transform="translate(63.623047 0.765625)"/>
       <use xlink:href="#DejaVuSans-36" transform="translate(128.203125 39.046875) scale(0.7)"/>
      </g>
     </g>
    </g>
    <g id="xtick_2">
     <g id="line2d_2">
      <path d="M 175.833042 166.98 
L 175.833042 28.08 
" clip-path="url(#p8d454887a9)" style="fill: none; stroke: #cccccc; stroke-linecap: round"/>
     </g>
     <g id="text_2">
      <!-- $\mathdefault{10^{7}}$ -->
      <g style="fill: #262626" transform="translate(166.153042 184.838281) scale(0.11 -0.11)">
       <defs>
        <path id="DejaVuSans-37" d="M 525 4666 
L 3525 4666 
L 3525 4397 
L 1831 0 
L 1172 0 
L 2766 4134 
L 525 4134 
L 525 4666 
z
" transform="scale(0.015625)"/>
       </defs>
       <use xlink:href="#DejaVuSans-31" transform="translate(0 0.684375)"/>
       <use xlink:href="#DejaVuSans-30" transform="translate(63.623047 0.684375)"/>
       <use xlink:href="#DejaVuSans-37" transform="translate(128.203125 38.965625) scale(0.7)"/>
      </g>
     </g>
    </g>
    <g id="xtick_3"/>
    <g id="xtick_4"/>
    <g id="xtick_5"/>
    <g id="xtick_6"/>
    <g id="xtick_7"/>
    <g id="xtick_8"/>
    <g id="xtick_9"/>
    <g id="xtick_10"/>
    <g id="xtick_11"/>
    <g id="xtick_12"/>
    <g id="xtick_13"/>
    <g id="xtick_14"/>
    <g id="xtick_15"/>
    <g id="xtick_16"/>
    <g id="xtick_17"/>
    <g id="xtick_18"/>
    <g id="text_3">
     <!-- Cell Writes -->
     <g style="fill: #262626" transform="translate(90.968438 200.244063) scale(0.12 -0.12)">
      <defs>
       <path id="DejaVuSans-43" d="M 4122 4306 
L 4122 3641 
Q 3803 3938 3442 4084 
Q 3081 4231 2675 4231 
Q 1875 4231 1450 3742 
Q 1025 3253 1025 2328 
Q 1025 1406 1450 917 
Q 1875 428 2675 428 
Q 3081 428 3442 575 
Q 3803 722 4122 1019 
L 4122 359 
Q 3791 134 3420 21 
Q 3050 -91 2638 -91 
Q 1578 -91 968 557 
Q 359 1206 359 2328 
Q 359 3453 968 4101 
Q 1578 4750 2638 4750 
Q 3056 4750 3426 4639 
Q 3797 4528 4122 4306 
z
" transform="scale(0.015625)"/>
       <path id="DejaVuSans-65" d="M 3597 1894 
L 3597 1613 
L 953 1613 
Q 991 1019 1311 708 
Q 1631 397 2203 397 
Q 2534 397 2845 478 
Q 3156 559 3463 722 
L 3463 178 
Q 3153 47 2828 -22 
Q 2503 -91 2169 -91 
Q 1331 -91 842 396 
Q 353 884 353 1716 
Q 353 2575 817 3079 
Q 1281 3584 2069 3584 
Q 2775 3584 3186 3129 
Q 3597 2675 3597 1894 
z
M 3022 2063 
Q 3016 2534 2758 2815 
Q 2500 3097 2075 3097 
Q 1594 3097 1305 2825 
Q 1016 2553 972 2059 
L 3022 2063 
z
" transform="scale(0.015625)"/>
       <path id="DejaVuSans-6c" d="M 603 4863 
L 1178 4863 
L 1178 0 
L 603 0 
L 603 4863 
z
" transform="scale(0.015625)"/>
       <path id="DejaVuSans-20" transform="scale(0.015625)"/>
       <path id="DejaVuSans-57" d="M 213 4666 
L 850 4666 
L 1831 722 
L 2809 4666 
L 3519 4666 
L 4500 722 
L 5478 4666 
L 6119 4666 
L 4947 0 
L 4153 0 
L 3169 4050 
L 2175 0 
L 1381 0 
L 213 4666 
z
" transform="scale(0.015625)"/>
       <path id="DejaVuSans-72" d="M 2631 2963 
Q 2534 3019 2420 3045 
Q 2306 3072 2169 3072 
Q 1681 3072 1420 2755 
Q 1159 2438 1159 1844 
L 1159 0 
L 581 0 
L 581 3500 
L 1159 3500 
L 1159 2956 
Q 1341 3275 1631 3429 
Q 1922 3584 2338 3584 
Q 2397 3584 2469 3576 
Q 2541 3569 2628 3553 
L 2631 2963 
z
" transform="scale(0.015625)"/>
       <path id="DejaVuSans-69" d="M 603 3500 
L 1178 3500 
L 1178 0 
L 603 0 
L 603 3500 
z
M 603 4863 
L 1178 4863 
L 1178 4134 
L 603 4134 
L 603 4863 
z
" transform="scale(0.015625)"/>
       <path id="DejaVuSans-74" d="M 1172 4494 
L 1172 3500 
L 2356 3500 
L 2356 3053 
L 1172 3053 
L 1172 1153 
Q 1172 725 1289 603 
Q 1406 481 1766 481 
L 2356 481 
L 2356 0 
L 1766 0 
Q 1100 0 847 248 
Q 594 497 594 1153 
L 594 3053 
L 172 3053 
L 172 3500 
L 594 3500 
L 594 4494 
L 1172 4494 
z
" transform="scale(0.015625)"/>
       <path id="DejaVuSans-73" d="M 2834 3397 
L 2834 2853 
Q 2591 2978 2328 3040 
Q 2066 3103 1784 3103 
Q 1356 3103 1142 2972 
Q 928 2841 928 2578 
Q 928 2378 1081 2264 
Q 1234 2150 1697 2047 
L 1894 2003 
Q 2506 1872 2764 1633 
Q 3022 1394 3022 966 
Q 3022 478 2636 193 
Q 2250 -91 1575 -91 
Q 1294 -91 989 -36 
Q 684 19 347 128 
L 347 722 
Q 666 556 975 473 
Q 1284 391 1588 391 
Q 1994 391 2212 530 
Q 2431 669 2431 922 
Q 2431 1156 2273 1281 
Q 2116 1406 1581 1522 
L 1381 1569 
Q 847 1681 609 1914 
Q 372 2147 372 2553 
Q 372 3047 722 3315 
Q 1072 3584 1716 3584 
Q 2034 3584 2315 3537 
Q 2597 3491 2834 3397 
z
" transform="scale(0.015625)"/>
      </defs>
      <use xlink:href="#DejaVuSans-43"/>
      <use xlink:href="#DejaVuSans-65" x="69.824219"/>
      <use xlink:href="#DejaVuSans-6c" x="131.347656"/>
      <use xlink:href="#DejaVuSans-6c" x="159.130859"/>
      <use xlink:href="#DejaVuSans-20" x="186.914062"/>
      <use xlink:href="#DejaVuSans-57" x="218.701172"/>
      <use xlink:href="#DejaVuSans-72" x="313.078125"/>
      <use xlink:href="#DejaVuSans-69" x="354.191406"/>
      <use xlink:href="#DejaVuSans-74" x="381.974609"/>
      <use xlink:href="#DejaVuSans-65" x="421.183594"/>
      <use xlink:href="#DejaVuSans-73" x="482.707031"/>
     </g>
    </g>
   </g>
   <g id="matplotlib.axis_2">
    <g id="ytick_1">
     <g id="line2d_3">
      <path d="M 55.47 162.636686 
L 190.6425 162.636686 
" clip-path="url(#p8d454887a9)" style="fill: none; stroke: #cccccc; stroke-linecap: round"/>
     </g>
     <g id="text_4">
      <!-- 0.0 -->
      <g style="fill: #262626" transform="translate(28.476563 166.815827) scale(0.11 -0.11)">
       <defs>
        <path id="DejaVuSans-2e" d="M 684 794 
L 1344 794 
L 1344 0 
L 684 0 
L 684 794 
z
" transform="scale(0.015625)"/>
       </defs>
       <use xlink:href="#DejaVuSans-30"/>
       <use xlink:href="#DejaVuSans-2e" x="63.623047"/>
       <use xlink:href="#DejaVuSans-30" x="95.410156"/>
      </g>
     </g>
    </g>
    <g id="ytick_2">
     <g id="line2d_4">
      <path d="M 55.47 131.193409 
L 190.6425 131.193409 
" clip-path="url(#p8d454887a9)" style="fill: none; stroke: #cccccc; stroke-linecap: round"/>
     </g>
     <g id="text_5">
      <!-- 0.2 -->
      <g style="fill: #262626" transform="translate(28.476563 135.372549) scale(0.11 -0.11)">
       <defs>
        <path id="DejaVuSans-32" d="M 1228 531 
L 3431 531 
L 3431 0 
L 469 0 
L 469 531 
Q 828 903 1448 1529 
Q 2069 2156 2228 2338 
Q 2531 2678 2651 2914 
Q 2772 3150 2772 3378 
Q 2772 3750 2511 3984 
Q 2250 4219 1831 4219 
Q 1534 4219 1204 4116 
Q 875 4013 500 3803 
L 500 4441 
Q 881 4594 1212 4672 
Q 1544 4750 1819 4750 
Q 2544 4750 2975 4387 
Q 3406 4025 3406 3419 
Q 3406 3131 3298 2873 
Q 3191 2616 2906 2266 
Q 2828 2175 2409 1742 
Q 1991 1309 1228 531 
z
" transform="scale(0.015625)"/>
       </defs>
       <use xlink:href="#DejaVuSans-30"/>
       <use xlink:href="#DejaVuSans-2e" x="63.623047"/>
       <use xlink:href="#DejaVuSans-32" x="95.410156"/>
      </g>
     </g>
    </g>
    <g id="ytick_3">
     <g id="line2d_5">
      <path d="M 55.47 99.750131 
L 190.6425 99.750131 
" clip-path="url(#p8d454887a9)" style="fill: none; stroke: #cccccc; stroke-linecap: round"/>
     </g>
     <g id="text_6">
      <!-- 0.4 -->
      <g style="fill: #262626" transform="translate(28.476563 103.929272) scale(0.11 -0.11)">
       <defs>
        <path id="DejaVuSans-34" d="M 2419 4116 
L 825 1625 
L 2419 1625 
L 2419 4116 
z
M 2253 4666 
L 3047 4666 
L 3047 1625 
L 3713 1625 
L 3713 1100 
L 3047 1100 
L 3047 0 
L 2419 0 
L 2419 1100 
L 313 1100 
L 313 1709 
L 2253 4666 
z
" transform="scale(0.015625)"/>
       </defs>
       <use xlink:href="#DejaVuSans-30"/>
       <use xlink:href="#DejaVuSans-2e" x="63.623047"/>
       <use xlink:href="#DejaVuSans-34" x="95.410156"/>
      </g>
     </g>
    </g>
    <g id="ytick_4">
     <g id="line2d_6">
      <path d="M 55.47 68.306854 
L 190.6425 68.306854 
" clip-path="url(#p8d454887a9)" style="fill: none; stroke: #cccccc; stroke-linecap: round"/>
     </g>
     <g id="text_7">
      <!-- 0.6 -->
      <g style="fill: #262626" transform="translate(28.476563 72.485994) scale(0.11 -0.11)">
       <use xlink:href="#DejaVuSans-30"/>
       <use xlink:href="#DejaVuSans-2e" x="63.623047"/>
       <use xlink:href="#DejaVuSans-36" x="95.410156"/>
      </g>
     </g>
    </g>
    <g id="ytick_5">
     <g id="line2d_7">
      <path d="M 55.47 36.863576 
L 190.6425 36.863576 
" clip-path="url(#p8d454887a9)" style="fill: none; stroke: #cccccc; stroke-linecap: round"/>
     </g>
     <g id="text_8">
      <!-- 0.8 -->
      <g style="fill: #262626" transform="translate(28.476563 41.042717) scale(0.11 -0.11)">
       <defs>
        <path id="DejaVuSans-38" d="M 2034 2216 
Q 1584 2216 1326 1975 
Q 1069 1734 1069 1313 
Q 1069 891 1326 650 
Q 1584 409 2034 409 
Q 2484 409 2743 651 
Q 3003 894 3003 1313 
Q 3003 1734 2745 1975 
Q 2488 2216 2034 2216 
z
M 1403 2484 
Q 997 2584 770 2862 
Q 544 3141 544 3541 
Q 544 4100 942 4425 
Q 1341 4750 2034 4750 
Q 2731 4750 3128 4425 
Q 3525 4100 3525 3541 
Q 3525 3141 3298 2862 
Q 3072 2584 2669 2484 
Q 3125 2378 3379 2068 
Q 3634 1759 3634 1313 
Q 3634 634 3220 271 
Q 2806 -91 2034 -91 
Q 1263 -91 848 271 
Q 434 634 434 1313 
Q 434 1759 690 2068 
Q 947 2378 1403 2484 
z
M 1172 3481 
Q 1172 3119 1398 2916 
Q 1625 2713 2034 2713 
Q 2441 2713 2670 2916 
Q 2900 3119 2900 3481 
Q 2900 3844 2670 4047 
Q 2441 4250 2034 4250 
Q 1625 4250 1398 4047 
Q 1172 3844 1172 3481 
z
" transform="scale(0.015625)"/>
       </defs>
       <use xlink:href="#DejaVuSans-30"/>
       <use xlink:href="#DejaVuSans-2e" x="63.623047"/>
       <use xlink:href="#DejaVuSans-38" x="95.410156"/>
      </g>
     </g>
    </g>
    <g id="text_9">
     <!-- Utilization -->
     <g style="fill: #262626" transform="translate(21.980938 127.592813) rotate(-90) scale(0.12 -0.12)">
      <defs>
       <path id="DejaVuSans-55" d="M 556 4666 
L 1191 4666 
L 1191 1831 
Q 1191 1081 1462 751 
Q 1734 422 2344 422 
Q 2950 422 3222 751 
Q 3494 1081 3494 1831 
L 3494 4666 
L 4128 4666 
L 4128 1753 
Q 4128 841 3676 375 
Q 3225 -91 2344 -91 
Q 1459 -91 1007 375 
Q 556 841 556 1753 
L 556 4666 
z
" transform="scale(0.015625)"/>
       <path id="DejaVuSans-7a" d="M 353 3500 
L 3084 3500 
L 3084 2975 
L 922 459 
L 3084 459 
L 3084 0 
L 275 0 
L 275 525 
L 2438 3041 
L 353 3041 
L 353 3500 
z
" transform="scale(0.015625)"/>
       <path id="DejaVuSans-61" d="M 2194 1759 
Q 1497 1759 1228 1600 
Q 959 1441 959 1056 
Q 959 750 1161 570 
Q 1363 391 1709 391 
Q 2188 391 2477 730 
Q 2766 1069 2766 1631 
L 2766 1759 
L 2194 1759 
z
M 3341 1997 
L 3341 0 
L 2766 0 
L 2766 531 
Q 2569 213 2275 61 
Q 1981 -91 1556 -91 
Q 1019 -91 701 211 
Q 384 513 384 1019 
Q 384 1609 779 1909 
Q 1175 2209 1959 2209 
L 2766 2209 
L 2766 2266 
Q 2766 2663 2505 2880 
Q 2244 3097 1772 3097 
Q 1472 3097 1187 3025 
Q 903 2953 641 2809 
L 641 3341 
Q 956 3463 1253 3523 
Q 1550 3584 1831 3584 
Q 2591 3584 2966 3190 
Q 3341 2797 3341 1997 
z
" transform="scale(0.015625)"/>
       <path id="DejaVuSans-6f" d="M 1959 3097 
Q 1497 3097 1228 2736 
Q 959 2375 959 1747 
Q 959 1119 1226 758 
Q 1494 397 1959 397 
Q 2419 397 2687 759 
Q 2956 1122 2956 1747 
Q 2956 2369 2687 2733 
Q 2419 3097 1959 3097 
z
M 1959 3584 
Q 2709 3584 3137 3096 
Q 3566 2609 3566 1747 
Q 3566 888 3137 398 
Q 2709 -91 1959 -91 
Q 1206 -91 779 398 
Q 353 888 353 1747 
Q 353 2609 779 3096 
Q 1206 3584 1959 3584 
z
" transform="scale(0.015625)"/>
       <path id="DejaVuSans-6e" d="M 3513 2113 
L 3513 0 
L 2938 0 
L 2938 2094 
Q 2938 2591 2744 2837 
Q 2550 3084 2163 3084 
Q 1697 3084 1428 2787 
Q 1159 2491 1159 1978 
L 1159 0 
L 581 0 
L 581 3500 
L 1159 3500 
L 1159 2956 
Q 1366 3272 1645 3428 
Q 1925 3584 2291 3584 
Q 2894 3584 3203 3211 
Q 3513 2838 3513 2113 
z
" transform="scale(0.015625)"/>
      </defs>
      <use xlink:href="#DejaVuSans-55"/>
      <use xlink:href="#DejaVuSans-74" x="73.193359"/>
      <use xlink:href="#DejaVuSans-69" x="112.402344"/>
      <use xlink:href="#DejaVuSans-6c" x="140.185547"/>
      <use xlink:href="#DejaVuSans-69" x="167.96875"/>
      <use xlink:href="#DejaVuSans-7a" x="195.751953"/>
      <use xlink:href="#DejaVuSans-61" x="248.242188"/>
      <use xlink:href="#DejaVuSans-74" x="309.521484"/>
      <use xlink:href="#DejaVuSans-69" x="348.730469"/>
      <use xlink:href="#DejaVuSans-6f" x="376.513672"/>
      <use xlink:href="#DejaVuSans-6e" x="437.695312"/>
     </g>
    </g>
   </g>
   <g id="PathCollection_1">
    <path d="M 114.707967 122.366789 
C 116.033982 122.366789 117.305866 121.839957 118.243501 120.902323 
C 119.181135 119.964688 119.707967 118.692804 119.707967 117.366789 
C 119.707967 116.040773 119.181135 114.76889 118.243501 113.831255 
C 117.305866 112.893621 116.033982 112.366789 114.707967 112.366789 
C 113.381951 112.366789 112.110067 112.893621 111.172433 113.831255 
C 110.234798 114.76889 109.707967 116.040773 109.707967 117.366789 
C 109.707967 118.692804 110.234798 119.964688 111.172433 120.902323 
C 112.110067 121.839957 113.381951 122.366789 114.707967 122.366789 
z
" clip-path="url(#p8d454887a9)" style="fill: #ff0000; stroke: #ffffff; stroke-width: 0.8"/>
    <path d="M 94.625173 40.880974 
C 95.951188 40.880974 97.223072 40.354142 98.160706 39.416508 
C 99.098341 38.478873 99.625173 37.20699 99.625173 35.880974 
C 99.625173 34.554959 99.098341 33.283075 98.160706 32.34544 
C 97.223072 31.407806 95.951188 30.880974 94.625173 30.880974 
C 93.299157 30.880974 92.027273 31.407806 91.089639 32.34544 
C 90.152004 33.283075 89.625173 34.554959 89.625173 35.880974 
C 89.625173 37.20699 90.152004 38.478873 91.089639 39.416508 
C 92.027273 40.354142 93.299157 40.880974 94.625173 40.880974 
z
" clip-path="url(#p8d454887a9)" style="fill: #7fc97f; stroke: #ffffff; stroke-width: 0.8"/>
    <path d="M 90.56322 40.880974 
C 91.889236 40.880974 93.16112 40.354142 94.098754 39.416508 
C 95.036389 38.478873 95.56322 37.20699 95.56322 35.880974 
C 95.56322 34.554959 95.036389 33.283075 94.098754 32.34544 
C 93.16112 31.407806 91.889236 30.880974 90.56322 30.880974 
C 89.237205 30.880974 87.965321 31.407806 87.027687 32.34544 
C 86.090052 33.283075 85.56322 34.554959 85.56322 35.880974 
C 85.56322 37.20699 86.090052 38.478873 87.027687 39.416508 
C 87.965321 40.354142 89.237205 40.880974 90.56322 40.880974 
z
" clip-path="url(#p8d454887a9)" style="fill: #beaed4; stroke: #ffffff; stroke-width: 0.8"/>
    <path d="M 94.625173 40.880974 
C 95.951188 40.880974 97.223072 40.354142 98.160706 39.416508 
C 99.098341 38.478873 99.625173 37.20699 99.625173 35.880974 
C 99.625173 34.554959 99.098341 33.283075 98.160706 32.34544 
C 97.223072 31.407806 95.951188 30.880974 94.625173 30.880974 
C 93.299157 30.880974 92.027273 31.407806 91.089639 32.34544 
C 90.152004 33.283075 89.625173 34.554959 89.625173 35.880974 
C 89.625173 37.20699 90.152004 38.478873 91.089639 39.416508 
C 92.027273 40.354142 93.299157 40.880974 94.625173 40.880974 
z
" clip-path="url(#p8d454887a9)" style="fill: #fdc086; stroke: #ffffff; stroke-width: 0.8"/>
    <path d="M 94.625173 40.880974 
C 95.951188 40.880974 97.223072 40.354142 98.160706 39.416508 
C 99.098341 38.478873 99.625173 37.20699 99.625173 35.880974 
C 99.625173 34.554959 99.098341 33.283075 98.160706 32.34544 
C 97.223072 31.407806 95.951188 30.880974 94.625173 30.880974 
C 93.299157 30.880974 92.027273 31.407806 91.089639 32.34544 
C 90.152004 33.283075 89.625173 34.554959 89.625173 35.880974 
C 89.625173 37.20699 90.152004 38.478873 91.089639 39.416508 
C 92.027273 40.354142 93.299157 40.880974 94.625173 40.880974 
z
" clip-path="url(#p8d454887a9)" style="fill: #ffff99; stroke: #ffffff; stroke-width: 0.8"/>
    <path d="M 90.56322 40.880974 
C 91.889236 40.880974 93.16112 40.354142 94.098754 39.416508 
C 95.036389 38.478873 95.56322 37.20699 95.56322 35.880974 
C 95.56322 34.554959 95.036389 33.283075 94.098754 32.34544 
C 93.16112 31.407806 91.889236 30.880974 90.56322 30.880974 
C 89.237205 30.880974 87.965321 31.407806 87.027687 32.34544 
C 86.090052 33.283075 85.56322 34.554959 85.56322 35.880974 
C 85.56322 37.20699 86.090052 38.478873 87.027687 39.416508 
C 87.965321 40.354142 89.237205 40.880974 90.56322 40.880974 
z
" clip-path="url(#p8d454887a9)" style="fill: #386cb0; stroke: #ffffff; stroke-width: 0.8"/>
    <path d="M 94.625173 40.880974 
C 95.951188 40.880974 97.223072 40.354142 98.160706 39.416508 
C 99.098341 38.478873 99.625173 37.20699 99.625173 35.880974 
C 99.625173 34.554959 99.098341 33.283075 98.160706 32.34544 
C 97.223072 31.407806 95.951188 30.880974 94.625173 30.880974 
C 93.299157 30.880974 92.027273 31.407806 91.089639 32.34544 
C 90.152004 33.283075 89.625173 34.554959 89.625173 35.880974 
C 89.625173 37.20699 90.152004 38.478873 91.089639 39.416508 
C 92.027273 40.354142 93.299157 40.880974 94.625173 40.880974 
z
" clip-path="url(#p8d454887a9)" style="fill: #f0027f; stroke: #ffffff; stroke-width: 0.8"/>
    <path d="M 144.966775 154.432966 
L 147.466775 151.932966 
L 149.966775 154.432966 
L 152.466775 151.932966 
L 149.966775 149.432966 
L 152.466775 146.932966 
L 149.966775 144.432966 
L 147.466775 146.932966 
L 144.966775 144.432966 
L 142.466775 146.932966 
L 144.966775 149.432966 
L 142.466775 151.932966 
z
" clip-path="url(#p8d454887a9)" style="fill: #ff0000; stroke: #ffffff; stroke-width: 0.8"/>
    <path d="M 113.908591 88.414366 
L 116.408591 85.914366 
L 118.908591 88.414366 
L 121.408591 85.914366 
L 118.908591 83.414366 
L 121.408591 80.914366 
L 118.908591 78.414366 
L 116.408591 80.914366 
L 113.908591 78.414366 
L 111.408591 80.914366 
L 113.908591 83.414366 
L 111.408591 85.914366 
z
" clip-path="url(#p8d454887a9)" style="fill: #7fc97f; stroke: #ffffff; stroke-width: 0.8"/>
    <path d="M 106.328016 88.414366 
L 108.828016 85.914366 
L 111.328016 88.414366 
L 113.828016 85.914366 
L 111.328016 83.414366 
L 113.828016 80.914366 
L 111.328016 78.414366 
L 108.828016 80.914366 
L 106.328016 78.414366 
L 103.828016 80.914366 
L 106.328016 83.414366 
L 103.828016 85.914366 
z
" clip-path="url(#p8d454887a9)" style="fill: #beaed4; stroke: #ffffff; stroke-width: 0.8"/>
    <path d="M 113.908591 88.414366 
L 116.408591 85.914366 
L 118.908591 88.414366 
L 121.408591 85.914366 
L 118.908591 83.414366 
L 121.408591 80.914366 
L 118.908591 78.414366 
L 116.408591 80.914366 
L 113.908591 78.414366 
L 111.408591 80.914366 
L 113.908591 83.414366 
L 111.408591 85.914366 
z
" clip-path="url(#p8d454887a9)" style="fill: #fdc086; stroke: #ffffff; stroke-width: 0.8"/>
    <path d="M 113.908591 88.414366 
L 116.408591 85.914366 
L 118.908591 88.414366 
L 121.408591 85.914366 
L 118.908591 83.414366 
L 121.408591 80.914366 
L 118.908591 78.414366 
L 116.408591 80.914366 
L 113.908591 78.414366 
L 111.408591 80.914366 
L 113.908591 83.414366 
L 111.408591 85.914366 
z
" clip-path="url(#p8d454887a9)" style="fill: #ffff99; stroke: #ffffff; stroke-width: 0.8"/>
    <path d="M 106.328016 88.414366 
L 108.828016 85.914366 
L 111.328016 88.414366 
L 113.828016 85.914366 
L 111.328016 83.414366 
L 113.828016 80.914366 
L 111.328016 78.414366 
L 108.828016 80.914366 
L 106.328016 78.414366 
L 103.828016 80.914366 
L 106.328016 83.414366 
L 103.828016 85.914366 
z
" clip-path="url(#p8d454887a9)" style="fill: #386cb0; stroke: #ffffff; stroke-width: 0.8"/>
    <path d="M 113.908591 88.414366 
L 116.408591 85.914366 
L 118.908591 88.414366 
L 121.408591 85.914366 
L 118.908591 83.414366 
L 121.408591 80.914366 
L 118.908591 78.414366 
L 116.408591 80.914366 
L 113.908591 78.414366 
L 111.408591 80.914366 
L 113.908591 83.414366 
L 111.408591 85.914366 
z
" clip-path="url(#p8d454887a9)" style="fill: #f0027f; stroke: #ffffff; stroke-width: 0.8"/>
   </g>
   <g id="line2d_8"/>
   <g id="line2d_9"/>
   <g id="line2d_10"/>
   <g id="line2d_11"/>
   <g id="line2d_12"/>
   <g id="line2d_13"/>
   <g id="line2d_14"/>
   <g id="line2d_15"/>
   <g id="line2d_16"/>
   <g id="line2d_17"/>
   <g id="line2d_18"/>
   <g id="line2d_19">
    <path d="M 114.707967 117.366789 
L 147.466775 149.432966 
" clip-path="url(#p8d454887a9)" style="fill: none; stroke: #808080; stroke-opacity: 0.2; stroke-width: 1.5; stroke-linecap: round"/>
   </g>
   <g id="line2d_20">
    <path d="M 94.625173 35.880974 
L 116.408591 83.414366 
" clip-path="url(#p8d454887a9)" style="fill: none; stroke: #808080; stroke-opacity: 0.2; stroke-width: 1.5; stroke-linecap: round"/>
   </g>
   <g id="line2d_21">
    <path d="M 90.56322 35.880974 
L 108.828016 83.414366 
" clip-path="url(#p8d454887a9)" style="fill: none; stroke: #808080; stroke-opacity: 0.2; stroke-width: 1.5; stroke-linecap: round"/>
   </g>
   <g id="line2d_22">
    <path d="M 94.625173 35.880974 
L 116.408591 83.414366 
" clip-path="url(#p8d454887a9)" style="fill: none; stroke: #808080; stroke-opacity: 0.2; stroke-width: 1.5; stroke-linecap: round"/>
   </g>
   <g id="line2d_23">
    <path d="M 94.625173 35.880974 
L 116.408591 83.414366 
" clip-path="url(#p8d454887a9)" style="fill: none; stroke: #808080; stroke-opacity: 0.2; stroke-width: 1.5; stroke-linecap: round"/>
   </g>
   <g id="line2d_24">
    <path d="M 90.56322 35.880974 
L 108.828016 83.414366 
" clip-path="url(#p8d454887a9)" style="fill: none; stroke: #808080; stroke-opacity: 0.2; stroke-width: 1.5; stroke-linecap: round"/>
   </g>
   <g id="line2d_25">
    <path d="M 94.625173 35.880974 
L 116.408591 83.414366 
" clip-path="url(#p8d454887a9)" style="fill: none; stroke: #808080; stroke-opacity: 0.2; stroke-width: 1.5; stroke-linecap: round"/>
   </g>
   <g id="patch_3">
    <path d="M 55.47 166.98 
L 55.47 28.08 
" style="fill: none; stroke: #cccccc; stroke-width: 1.25; stroke-linejoin: miter; stroke-linecap: square"/>
   </g>
   <g id="patch_4">
    <path d="M 55.47 166.98 
L 190.6425 166.98 
" style="fill: none; stroke: #cccccc; stroke-width: 1.25; stroke-linejoin: miter; stroke-linecap: square"/>
   </g>
   <g id="patch_5">
    <path d="M 116.137566 118.766161 
Q 131.08797 133.400464 144.440432 146.470611 
" style="fill: none; opacity: 0.2; stroke: #808080; stroke-width: 2; stroke-linecap: round"/>
    <path d="M 142.689079 141.397864 
L 144.440432 146.470611 
L 139.331423 144.828046 
" style="fill: none; opacity: 0.2; stroke: #808080; stroke-width: 2; stroke-linecap: round"/>
   </g>
   <g id="patch_6">
    <path d="M 95.458803 37.700031 
Q 105.517489 59.648995 114.644602 79.565183 
" style="fill: none; opacity: 0.2; stroke: #808080; stroke-width: 2; stroke-linecap: round"/>
    <path d="M 114.826669 74.201709 
L 114.644602 79.565183 
L 110.463063 76.201446 
" style="fill: none; opacity: 0.2; stroke: #808080; stroke-width: 2; stroke-linecap: round"/>
   </g>
   <g id="patch_7">
    <path d="M 91.280033 37.746451 
Q 99.69576 59.64804 107.309447 79.462352 
" style="fill: none; opacity: 0.2; stroke: #808080; stroke-width: 2; stroke-linecap: round"/>
    <path d="M 107.828068 74.120907 
L 107.309447 79.462352 
L 103.347464 75.842588 
" style="fill: none; opacity: 0.2; stroke: #808080; stroke-width: 2; stroke-linecap: round"/>
   </g>
   <g id="patch_8">
    <path d="M 95.458803 37.700031 
Q 105.517489 59.648995 114.644602 79.565183 
" style="fill: none; opacity: 0.2; stroke: #808080; stroke-width: 2; stroke-linecap: round"/>
    <path d="M 114.826669 74.201709 
L 114.644602 79.565183 
L 110.463063 76.201446 
" style="fill: none; opacity: 0.2; stroke: #808080; stroke-width: 2; stroke-linecap: round"/>
   </g>
   <g id="patch_9">
    <path d="M 95.458803 37.700031 
Q 105.517489 59.648995 114.644602 79.565183 
" style="fill: none; opacity: 0.2; stroke: #808080; stroke-width: 2; stroke-linecap: round"/>
    <path d="M 114.826669 74.201709 
L 114.644602 79.565183 
L 110.463063 76.201446 
" style="fill: none; opacity: 0.2; stroke: #808080; stroke-width: 2; stroke-linecap: round"/>
   </g>
   <g id="patch_10">
    <path d="M 91.280033 37.746451 
Q 99.69576 59.64804 107.309447 79.462352 
" style="fill: none; opacity: 0.2; stroke: #808080; stroke-width: 2; stroke-linecap: round"/>
    <path d="M 107.828068 74.120907 
L 107.309447 79.462352 
L 103.347464 75.842588 
" style="fill: none; opacity: 0.2; stroke: #808080; stroke-width: 2; stroke-linecap: round"/>
   </g>
   <g id="patch_11">
    <path d="M 95.458803 37.700031 
Q 105.517489 59.648995 114.644602 79.565183 
" style="fill: none; opacity: 0.2; stroke: #808080; stroke-width: 2; stroke-linecap: round"/>
    <path d="M 114.826669 74.201709 
L 114.644602 79.565183 
L 110.463063 76.201446 
" style="fill: none; opacity: 0.2; stroke: #808080; stroke-width: 2; stroke-linecap: round"/>
   </g>
   <g id="text_10">
    <!-- FC-AE -->
    <g style="fill: #262626" transform="translate(105.490313 22.08) scale(0.12 -0.12)">
     <defs>
      <path id="DejaVuSans-46" d="M 628 4666 
L 3309 4666 
L 3309 4134 
L 1259 4134 
L 1259 2759 
L 3109 2759 
L 3109 2228 
L 1259 2228 
L 1259 0 
L 628 0 
L 628 4666 
z
" transform="scale(0.015625)"/>
      <path id="DejaVuSans-2d" d="M 313 2009 
L 1997 2009 
L 1997 1497 
L 313 1497 
L 313 2009 
z
" transform="scale(0.015625)"/>
      <path id="DejaVuSans-41" d="M 2188 4044 
L 1331 1722 
L 3047 1722 
L 2188 4044 
z
M 1831 4666 
L 2547 4666 
L 4325 0 
L 3669 0 
L 3244 1197 
L 1141 1197 
L 716 0 
L 50 0 
L 1831 4666 
z
" transform="scale(0.015625)"/>
      <path id="DejaVuSans-45" d="M 628 4666 
L 3578 4666 
L 3578 4134 
L 1259 4134 
L 1259 2753 
L 3481 2753 
L 3481 2222 
L 1259 2222 
L 1259 531 
L 3634 531 
L 3634 0 
L 628 0 
L 628 4666 
z
" transform="scale(0.015625)"/>
     </defs>
     <use xlink:href="#DejaVuSans-46"/>
     <use xlink:href="#DejaVuSans-43" x="57.519531"/>
     <use xlink:href="#DejaVuSans-2d" x="127.34375"/>
     <use xlink:href="#DejaVuSans-41" x="161.177734"/>
     <use xlink:href="#DejaVuSans-45" x="229.585938"/>
    </g>
   </g>
  </g>
  <g id="axes_2">
   <g id="patch_12">
    <path d="M 203.6025 166.98 
L 338.775 166.98 
L 338.775 28.08 
L 203.6025 28.08 
z
" style="fill: #ffffff"/>
   </g>
   <g id="matplotlib.axis_3">
    <g id="xtick_19">
     <g id="line2d_26">
      <path d="M 263.291205 166.98 
L 263.291205 28.08 
" clip-path="url(#p7fa1f67614)" style="fill: none; stroke: #cccccc; stroke-linecap: round"/>
     </g>
     <g id="text_11">
      <!-- $\mathdefault{10^{6}}$ -->
      <g style="fill: #262626" transform="translate(253.611205 184.838281) scale(0.11 -0.11)">
       <use xlink:href="#DejaVuSans-31" transform="translate(0 0.765625)"/>
       <use xlink:href="#DejaVuSans-30" transform="translate(63.623047 0.765625)"/>
       <use xlink:href="#DejaVuSans-36" transform="translate(128.203125 39.046875) scale(0.7)"/>
      </g>
     </g>
    </g>
    <g id="xtick_20">
     <g id="line2d_27">
      <path d="M 323.965542 166.98 
L 323.965542 28.08 
" clip-path="url(#p7fa1f67614)" style="fill: none; stroke: #cccccc; stroke-linecap: round"/>
     </g>
     <g id="text_12">
      <!-- $\mathdefault{10^{7}}$ -->
      <g style="fill: #262626" transform="translate(314.285542 184.838281) scale(0.11 -0.11)">
       <use xlink:href="#DejaVuSans-31" transform="translate(0 0.684375)"/>
       <use xlink:href="#DejaVuSans-30" transform="translate(63.623047 0.684375)"/>
       <use xlink:href="#DejaVuSans-37" transform="translate(128.203125 38.965625) scale(0.7)"/>
      </g>
     </g>
    </g>
    <g id="xtick_21"/>
    <g id="xtick_22"/>
    <g id="xtick_23"/>
    <g id="xtick_24"/>
    <g id="xtick_25"/>
    <g id="xtick_26"/>
    <g id="xtick_27"/>
    <g id="xtick_28"/>
    <g id="xtick_29"/>
    <g id="xtick_30"/>
    <g id="xtick_31"/>
    <g id="xtick_32"/>
    <g id="xtick_33"/>
    <g id="xtick_34"/>
    <g id="xtick_35"/>
    <g id="xtick_36"/>
    <g id="text_13">
     <!-- Cell Writes -->
     <g style="fill: #262626" transform="translate(239.100937 200.244063) scale(0.12 -0.12)">
      <use xlink:href="#DejaVuSans-43"/>
      <use xlink:href="#DejaVuSans-65" x="69.824219"/>
      <use xlink:href="#DejaVuSans-6c" x="131.347656"/>
      <use xlink:href="#DejaVuSans-6c" x="159.130859"/>
      <use xlink:href="#DejaVuSans-20" x="186.914062"/>
      <use xlink:href="#DejaVuSans-57" x="218.701172"/>
      <use xlink:href="#DejaVuSans-72" x="313.078125"/>
      <use xlink:href="#DejaVuSans-69" x="354.191406"/>
      <use xlink:href="#DejaVuSans-74" x="381.974609"/>
      <use xlink:href="#DejaVuSans-65" x="421.183594"/>
      <use xlink:href="#DejaVuSans-73" x="482.707031"/>
     </g>
    </g>
   </g>
   <g id="matplotlib.axis_4">
    <g id="ytick_6">
     <g id="line2d_28">
      <path d="M 203.6025 162.636686 
L 338.775 162.636686 
" clip-path="url(#p7fa1f67614)" style="fill: none; stroke: #cccccc; stroke-linecap: round"/>
     </g>
    </g>
    <g id="ytick_7">
     <g id="line2d_29">
      <path d="M 203.6025 131.193409 
L 338.775 131.193409 
" clip-path="url(#p7fa1f67614)" style="fill: none; stroke: #cccccc; stroke-linecap: round"/>
     </g>
    </g>
    <g id="ytick_8">
     <g id="line2d_30">
      <path d="M 203.6025 99.750131 
L 338.775 99.750131 
" clip-path="url(#p7fa1f67614)" style="fill: none; stroke: #cccccc; stroke-linecap: round"/>
     </g>
    </g>
    <g id="ytick_9">
     <g id="line2d_31">
      <path d="M 203.6025 68.306854 
L 338.775 68.306854 
" clip-path="url(#p7fa1f67614)" style="fill: none; stroke: #cccccc; stroke-linecap: round"/>
     </g>
    </g>
    <g id="ytick_10">
     <g id="line2d_32">
      <path d="M 203.6025 36.863576 
L 338.775 36.863576 
" clip-path="url(#p7fa1f67614)" style="fill: none; stroke: #cccccc; stroke-linecap: round"/>
     </g>
    </g>
   </g>
   <g id="PathCollection_2">
    <path d="M 242.757673 159.755396 
C 244.083688 159.755396 245.355572 159.228564 246.293206 158.29093 
C 247.230841 157.353295 247.757673 156.081411 247.757673 154.755396 
C 247.757673 153.42938 247.230841 152.157497 246.293206 151.219862 
C 245.355572 150.282227 244.083688 149.755396 242.757673 149.755396 
C 241.431657 149.755396 240.159773 150.282227 239.222139 151.219862 
C 238.284504 152.157497 237.757673 153.42938 237.757673 154.755396 
C 237.757673 156.081411 238.284504 157.353295 239.222139 158.29093 
C 240.159773 159.228564 241.431657 159.755396 242.757673 159.755396 
z
" clip-path="url(#p7fa1f67614)" style="fill: #ff0000; stroke: #ffffff; stroke-width: 0.8"/>
    <path d="M 209.746705 120.348945 
C 211.07272 120.348945 212.344604 119.822113 213.282238 118.884479 
C 214.219873 117.946844 214.746705 116.67496 214.746705 115.348945 
C 214.746705 114.022929 214.219873 112.751045 213.282238 111.813411 
C 212.344604 110.875776 211.07272 110.348945 209.746705 110.348945 
C 208.420689 110.348945 207.148805 110.875776 206.211171 111.813411 
C 205.273536 112.751045 204.746705 114.022929 204.746705 115.348945 
C 204.746705 116.67496 205.273536 117.946844 206.211171 118.884479 
C 207.148805 119.822113 208.420689 120.348945 209.746705 120.348945 
z
" clip-path="url(#p7fa1f67614)" style="fill: #7fc97f; stroke: #ffffff; stroke-width: 0.8"/>
    <path d="M 209.746705 120.348945 
C 211.07272 120.348945 212.344604 119.822113 213.282238 118.884479 
C 214.219873 117.946844 214.746705 116.67496 214.746705 115.348945 
C 214.746705 114.022929 214.219873 112.751045 213.282238 111.813411 
C 212.344604 110.875776 211.07272 110.348945 209.746705 110.348945 
C 208.420689 110.348945 207.148805 110.875776 206.211171 111.813411 
C 205.273536 112.751045 204.746705 114.022929 204.746705 115.348945 
C 204.746705 116.67496 205.273536 117.946844 206.211171 118.884479 
C 207.148805 119.822113 208.420689 120.348945 209.746705 120.348945 
z
" clip-path="url(#p7fa1f67614)" style="fill: #beaed4; stroke: #ffffff; stroke-width: 0.8"/>
    <path d="M 209.746705 120.348945 
C 211.07272 120.348945 212.344604 119.822113 213.282238 118.884479 
C 214.219873 117.946844 214.746705 116.67496 214.746705 115.348945 
C 214.746705 114.022929 214.219873 112.751045 213.282238 111.813411 
C 212.344604 110.875776 211.07272 110.348945 209.746705 110.348945 
C 208.420689 110.348945 207.148805 110.875776 206.211171 111.813411 
C 205.273536 112.751045 204.746705 114.022929 204.746705 115.348945 
C 204.746705 116.67496 205.273536 117.946844 206.211171 118.884479 
C 207.148805 119.822113 208.420689 120.348945 209.746705 120.348945 
z
" clip-path="url(#p7fa1f67614)" style="fill: #fdc086; stroke: #ffffff; stroke-width: 0.8"/>
    <path d="M 209.746705 120.348945 
C 211.07272 120.348945 212.344604 119.822113 213.282238 118.884479 
C 214.219873 117.946844 214.746705 116.67496 214.746705 115.348945 
C 214.746705 114.022929 214.219873 112.751045 213.282238 111.813411 
C 212.344604 110.875776 211.07272 110.348945 209.746705 110.348945 
C 208.420689 110.348945 207.148805 110.875776 206.211171 111.813411 
C 205.273536 112.751045 204.746705 114.022929 204.746705 115.348945 
C 204.746705 116.67496 205.273536 117.946844 206.211171 118.884479 
C 207.148805 119.822113 208.420689 120.348945 209.746705 120.348945 
z
" clip-path="url(#p7fa1f67614)" style="fill: #ffff99; stroke: #ffffff; stroke-width: 0.8"/>
    <path d="M 209.746705 120.348945 
C 211.07272 120.348945 212.344604 119.822113 213.282238 118.884479 
C 214.219873 117.946844 214.746705 116.67496 214.746705 115.348945 
C 214.746705 114.022929 214.219873 112.751045 213.282238 111.813411 
C 212.344604 110.875776 211.07272 110.348945 209.746705 110.348945 
C 208.420689 110.348945 207.148805 110.875776 206.211171 111.813411 
C 205.273536 112.751045 204.746705 114.022929 204.746705 115.348945 
C 204.746705 116.67496 205.273536 117.946844 206.211171 118.884479 
C 207.148805 119.822113 208.420689 120.348945 209.746705 120.348945 
z
" clip-path="url(#p7fa1f67614)" style="fill: #386cb0; stroke: #ffffff; stroke-width: 0.8"/>
    <path d="M 209.746705 120.348945 
C 211.07272 120.348945 212.344604 119.822113 213.282238 118.884479 
C 214.219873 117.946844 214.746705 116.67496 214.746705 115.348945 
C 214.746705 114.022929 214.219873 112.751045 213.282238 111.813411 
C 212.344604 110.875776 211.07272 110.348945 209.746705 110.348945 
C 208.420689 110.348945 207.148805 110.875776 206.211171 111.813411 
C 205.273536 112.751045 204.746705 114.022929 204.746705 115.348945 
C 204.746705 116.67496 205.273536 117.946844 206.211171 118.884479 
C 207.148805 119.822113 208.420689 120.348945 209.746705 120.348945 
z
" clip-path="url(#p7fa1f67614)" style="fill: #f0027f; stroke: #ffffff; stroke-width: 0.8"/>
    <path d="M 276.787263 165.666364 
L 279.287263 163.166364 
L 281.787263 165.666364 
L 284.287263 163.166364 
L 281.787263 160.666364 
L 284.287263 158.166364 
L 281.787263 155.666364 
L 279.287263 158.166364 
L 276.787263 155.666364 
L 274.287263 158.166364 
L 276.787263 160.666364 
L 274.287263 163.166364 
z
" clip-path="url(#p7fa1f67614)" style="fill: #ff0000; stroke: #ffffff; stroke-width: 0.8"/>
    <path d="M 243.776295 155.814751 
L 246.276295 153.314751 
L 248.776295 155.814751 
L 251.276295 153.314751 
L 248.776295 150.814751 
L 251.276295 148.314751 
L 248.776295 145.814751 
L 246.276295 148.314751 
L 243.776295 145.814751 
L 241.276295 148.314751 
L 243.776295 150.814751 
L 241.276295 153.314751 
z
" clip-path="url(#p7fa1f67614)" style="fill: #7fc97f; stroke: #ffffff; stroke-width: 0.8"/>
    <path d="M 243.776295 155.814751 
L 246.276295 153.314751 
L 248.776295 155.814751 
L 251.276295 153.314751 
L 248.776295 150.814751 
L 251.276295 148.314751 
L 248.776295 145.814751 
L 246.276295 148.314751 
L 243.776295 145.814751 
L 241.276295 148.314751 
L 243.776295 150.814751 
L 241.276295 153.314751 
z
" clip-path="url(#p7fa1f67614)" style="fill: #beaed4; stroke: #ffffff; stroke-width: 0.8"/>
    <path d="M 243.776295 155.814751 
L 246.276295 153.314751 
L 248.776295 155.814751 
L 251.276295 153.314751 
L 248.776295 150.814751 
L 251.276295 148.314751 
L 248.776295 145.814751 
L 246.276295 148.314751 
L 243.776295 145.814751 
L 241.276295 148.314751 
L 243.776295 150.814751 
L 241.276295 153.314751 
z
" clip-path="url(#p7fa1f67614)" style="fill: #fdc086; stroke: #ffffff; stroke-width: 0.8"/>
    <path d="M 243.776295 155.814751 
L 246.276295 153.314751 
L 248.776295 155.814751 
L 251.276295 153.314751 
L 248.776295 150.814751 
L 251.276295 148.314751 
L 248.776295 145.814751 
L 246.276295 148.314751 
L 243.776295 145.814751 
L 241.276295 148.314751 
L 243.776295 150.814751 
L 241.276295 153.314751 
z
" clip-path="url(#p7fa1f67614)" style="fill: #ffff99; stroke: #ffffff; stroke-width: 0.8"/>
    <path d="M 243.776295 155.814751 
L 246.276295 153.314751 
L 248.776295 155.814751 
L 251.276295 153.314751 
L 248.776295 150.814751 
L 251.276295 148.314751 
L 248.776295 145.814751 
L 246.276295 148.314751 
L 243.776295 145.814751 
L 241.276295 148.314751 
L 243.776295 150.814751 
L 241.276295 153.314751 
z
" clip-path="url(#p7fa1f67614)" style="fill: #386cb0; stroke: #ffffff; stroke-width: 0.8"/>
    <path d="M 243.776295 155.814751 
L 246.276295 153.314751 
L 248.776295 155.814751 
L 251.276295 153.314751 
L 248.776295 150.814751 
L 251.276295 148.314751 
L 248.776295 145.814751 
L 246.276295 148.314751 
L 243.776295 145.814751 
L 241.276295 148.314751 
L 243.776295 150.814751 
L 241.276295 153.314751 
z
" clip-path="url(#p7fa1f67614)" style="fill: #f0027f; stroke: #ffffff; stroke-width: 0.8"/>
   </g>
   <g id="line2d_33">
    <path d="M 242.757673 154.755396 
L 279.287263 160.666364 
" clip-path="url(#p7fa1f67614)" style="fill: none; stroke: #808080; stroke-opacity: 0.2; stroke-width: 1.5; stroke-linecap: round"/>
   </g>
   <g id="line2d_34">
    <path d="M 209.746705 115.348945 
L 246.276295 150.814751 
" clip-path="url(#p7fa1f67614)" style="fill: none; stroke: #808080; stroke-opacity: 0.2; stroke-width: 1.5; stroke-linecap: round"/>
   </g>
   <g id="line2d_35">
    <path d="M 209.746705 115.348945 
L 246.276295 150.814751 
" clip-path="url(#p7fa1f67614)" style="fill: none; stroke: #808080; stroke-opacity: 0.2; stroke-width: 1.5; stroke-linecap: round"/>
   </g>
   <g id="line2d_36">
    <path d="M 209.746705 115.348945 
L 246.276295 150.814751 
" clip-path="url(#p7fa1f67614)" style="fill: none; stroke: #808080; stroke-opacity: 0.2; stroke-width: 1.5; stroke-linecap: round"/>
   </g>
   <g id="line2d_37">
    <path d="M 209.746705 115.348945 
L 246.276295 150.814751 
" clip-path="url(#p7fa1f67614)" style="fill: none; stroke: #808080; stroke-opacity: 0.2; stroke-width: 1.5; stroke-linecap: round"/>
   </g>
   <g id="line2d_38">
    <path d="M 209.746705 115.348945 
L 246.276295 150.814751 
" clip-path="url(#p7fa1f67614)" style="fill: none; stroke: #808080; stroke-opacity: 0.2; stroke-width: 1.5; stroke-linecap: round"/>
   </g>
   <g id="line2d_39">
    <path d="M 209.746705 115.348945 
L 246.276295 150.814751 
" clip-path="url(#p7fa1f67614)" style="fill: none; stroke: #808080; stroke-opacity: 0.2; stroke-width: 1.5; stroke-linecap: round"/>
   </g>
   <g id="patch_13">
    <path d="M 203.6025 166.98 
L 203.6025 28.08 
" style="fill: none; stroke: #cccccc; stroke-width: 1.25; stroke-linejoin: miter; stroke-linecap: square"/>
   </g>
   <g id="patch_14">
    <path d="M 203.6025 166.98 
L 338.775 166.98 
" style="fill: none; stroke: #cccccc; stroke-width: 1.25; stroke-linejoin: miter; stroke-linecap: square"/>
   </g>
   <g id="patch_15">
    <path d="M 244.733089 155.075044 
Q 261.021046 157.71065 275.101647 159.989076 
" style="fill: none; opacity: 0.2; stroke: #808080; stroke-width: 2; stroke-linecap: round"/>
    <path d="M 270.746644 156.853162 
L 275.101647 159.989076 
L 269.979914 161.591529 
" style="fill: none; opacity: 0.2; stroke: #808080; stroke-width: 2; stroke-linecap: round"/>
   </g>
   <g id="patch_16">
    <path d="M 211.18033 116.740822 
Q 228.011785 133.082124 243.238913 147.86582 
" style="fill: none; opacity: 0.2; stroke: #808080; stroke-width: 2; stroke-linecap: round"/>
    <path d="M 241.466824 142.800279 
L 243.238913 147.86582 
L 238.123227 146.244167 
" style="fill: none; opacity: 0.2; stroke: #808080; stroke-width: 2; stroke-linecap: round"/>
   </g>
   <g id="patch_17">
    <path d="M 211.18033 116.740822 
Q 228.011785 133.082124 243.238913 147.86582 
" style="fill: none; opacity: 0.2; stroke: #808080; stroke-width: 2; stroke-linecap: round"/>
    <path d="M 241.466824 142.800279 
L 243.238913 147.86582 
L 238.123227 146.244167 
" style="fill: none; opacity: 0.2; stroke: #808080; stroke-width: 2; stroke-linecap: round"/>
   </g>
   <g id="patch_18">
    <path d="M 211.18033 116.740822 
Q 228.011785 133.082124 243.238913 147.86582 
" style="fill: none; opacity: 0.2; stroke: #808080; stroke-width: 2; stroke-linecap: round"/>
    <path d="M 241.466824 142.800279 
L 243.238913 147.86582 
L 238.123227 146.244167 
" style="fill: none; opacity: 0.2; stroke: #808080; stroke-width: 2; stroke-linecap: round"/>
   </g>
   <g id="patch_19">
    <path d="M 211.18033 116.740822 
Q 228.011785 133.082124 243.238913 147.86582 
" style="fill: none; opacity: 0.2; stroke: #808080; stroke-width: 2; stroke-linecap: round"/>
    <path d="M 241.466824 142.800279 
L 243.238913 147.86582 
L 238.123227 146.244167 
" style="fill: none; opacity: 0.2; stroke: #808080; stroke-width: 2; stroke-linecap: round"/>
   </g>
   <g id="patch_20">
    <path d="M 211.18033 116.740822 
Q 228.011785 133.082124 243.238913 147.86582 
" style="fill: none; opacity: 0.2; stroke: #808080; stroke-width: 2; stroke-linecap: round"/>
    <path d="M 241.466824 142.800279 
L 243.238913 147.86582 
L 238.123227 146.244167 
" style="fill: none; opacity: 0.2; stroke: #808080; stroke-width: 2; stroke-linecap: round"/>
   </g>
   <g id="patch_21">
    <path d="M 211.18033 116.740822 
Q 228.011785 133.082124 243.238913 147.86582 
" style="fill: none; opacity: 0.2; stroke: #808080; stroke-width: 2; stroke-linecap: round"/>
    <path d="M 241.466824 142.800279 
L 243.238913 147.86582 
L 238.123227 146.244167 
" style="fill: none; opacity: 0.2; stroke: #808080; stroke-width: 2; stroke-linecap: round"/>
   </g>
   <g id="text_14">
    <!-- DS-CNN -->
    <g style="fill: #262626" transform="translate(247.427812 22.08) scale(0.12 -0.12)">
     <defs>
      <path id="DejaVuSans-44" d="M 1259 4147 
L 1259 519 
L 2022 519 
Q 2988 519 3436 956 
Q 3884 1394 3884 2338 
Q 3884 3275 3436 3711 
Q 2988 4147 2022 4147 
L 1259 4147 
z
M 628 4666 
L 1925 4666 
Q 3281 4666 3915 4102 
Q 4550 3538 4550 2338 
Q 4550 1131 3912 565 
Q 3275 0 1925 0 
L 628 0 
L 628 4666 
z
" transform="scale(0.015625)"/>
      <path id="DejaVuSans-53" d="M 3425 4513 
L 3425 3897 
Q 3066 4069 2747 4153 
Q 2428 4238 2131 4238 
Q 1616 4238 1336 4038 
Q 1056 3838 1056 3469 
Q 1056 3159 1242 3001 
Q 1428 2844 1947 2747 
L 2328 2669 
Q 3034 2534 3370 2195 
Q 3706 1856 3706 1288 
Q 3706 609 3251 259 
Q 2797 -91 1919 -91 
Q 1588 -91 1214 -16 
Q 841 59 441 206 
L 441 856 
Q 825 641 1194 531 
Q 1563 422 1919 422 
Q 2459 422 2753 634 
Q 3047 847 3047 1241 
Q 3047 1584 2836 1778 
Q 2625 1972 2144 2069 
L 1759 2144 
Q 1053 2284 737 2584 
Q 422 2884 422 3419 
Q 422 4038 858 4394 
Q 1294 4750 2059 4750 
Q 2388 4750 2728 4690 
Q 3069 4631 3425 4513 
z
" transform="scale(0.015625)"/>
      <path id="DejaVuSans-4e" d="M 628 4666 
L 1478 4666 
L 3547 763 
L 3547 4666 
L 4159 4666 
L 4159 0 
L 3309 0 
L 1241 3903 
L 1241 0 
L 628 0 
L 628 4666 
z
" transform="scale(0.015625)"/>
     </defs>
     <use xlink:href="#DejaVuSans-44"/>
     <use xlink:href="#DejaVuSans-53" x="77.001953"/>
     <use xlink:href="#DejaVuSans-2d" x="140.478516"/>
     <use xlink:href="#DejaVuSans-43" x="176.5625"/>
     <use xlink:href="#DejaVuSans-4e" x="246.386719"/>
     <use xlink:href="#DejaVuSans-4e" x="321.191406"/>
    </g>
   </g>
  </g>
  <g id="axes_3">
   <g id="patch_22">
    <path d="M 351.735 166.98 
L 486.9075 166.98 
L 486.9075 28.08 
L 351.735 28.08 
z
" style="fill: #ffffff"/>
   </g>
   <g id="matplotlib.axis_5">
    <g id="xtick_37">
     <g id="line2d_40">
      <path d="M 411.423705 166.98 
L 411.423705 28.08 
" clip-path="url(#pebeb81dcca)" style="fill: none; stroke: #cccccc; stroke-linecap: round"/>
     </g>
     <g id="text_15">
      <!-- $\mathdefault{10^{6}}$ -->
      <g style="fill: #262626" transform="translate(401.743705 184.838281) scale(0.11 -0.11)">
       <use xlink:href="#DejaVuSans-31" transform="translate(0 0.765625)"/>
       <use xlink:href="#DejaVuSans-30" transform="translate(63.623047 0.765625)"/>
       <use xlink:href="#DejaVuSans-36" transform="translate(128.203125 39.046875) scale(0.7)"/>
      </g>
     </g>
    </g>
    <g id="xtick_38">
     <g id="line2d_41">
      <path d="M 472.098042 166.98 
L 472.098042 28.08 
" clip-path="url(#pebeb81dcca)" style="fill: none; stroke: #cccccc; stroke-linecap: round"/>
     </g>
     <g id="text_16">
      <!-- $\mathdefault{10^{7}}$ -->
      <g style="fill: #262626" transform="translate(462.418042 184.838281) scale(0.11 -0.11)">
       <use xlink:href="#DejaVuSans-31" transform="translate(0 0.684375)"/>
       <use xlink:href="#DejaVuSans-30" transform="translate(63.623047 0.684375)"/>
       <use xlink:href="#DejaVuSans-37" transform="translate(128.203125 38.965625) scale(0.7)"/>
      </g>
     </g>
    </g>
    <g id="xtick_39"/>
    <g id="xtick_40"/>
    <g id="xtick_41"/>
    <g id="xtick_42"/>
    <g id="xtick_43"/>
    <g id="xtick_44"/>
    <g id="xtick_45"/>
    <g id="xtick_46"/>
    <g id="xtick_47"/>
    <g id="xtick_48"/>
    <g id="xtick_49"/>
    <g id="xtick_50"/>
    <g id="xtick_51"/>
    <g id="xtick_52"/>
    <g id="xtick_53"/>
    <g id="xtick_54"/>
    <g id="text_17">
     <!-- Cell Writes -->
     <g style="fill: #262626" transform="translate(387.233437 200.244063) scale(0.12 -0.12)">
      <use xlink:href="#DejaVuSans-43"/>
      <use xlink:href="#DejaVuSans-65" x="69.824219"/>
      <use xlink:href="#DejaVuSans-6c" x="131.347656"/>
      <use xlink:href="#DejaVuSans-6c" x="159.130859"/>
      <use xlink:href="#DejaVuSans-20" x="186.914062"/>
      <use xlink:href="#DejaVuSans-57" x="218.701172"/>
      <use xlink:href="#DejaVuSans-72" x="313.078125"/>
      <use xlink:href="#DejaVuSans-69" x="354.191406"/>
      <use xlink:href="#DejaVuSans-74" x="381.974609"/>
      <use xlink:href="#DejaVuSans-65" x="421.183594"/>
      <use xlink:href="#DejaVuSans-73" x="482.707031"/>
     </g>
    </g>
   </g>
   <g id="matplotlib.axis_6">
    <g id="ytick_11">
     <g id="line2d_42">
      <path d="M 351.735 162.636686 
L 486.9075 162.636686 
" clip-path="url(#pebeb81dcca)" style="fill: none; stroke: #cccccc; stroke-linecap: round"/>
     </g>
    </g>
    <g id="ytick_12">
     <g id="line2d_43">
      <path d="M 351.735 131.193409 
L 486.9075 131.193409 
" clip-path="url(#pebeb81dcca)" style="fill: none; stroke: #cccccc; stroke-linecap: round"/>
     </g>
    </g>
    <g id="ytick_13">
     <g id="line2d_44">
      <path d="M 351.735 99.750131 
L 486.9075 99.750131 
" clip-path="url(#pebeb81dcca)" style="fill: none; stroke: #cccccc; stroke-linecap: round"/>
     </g>
    </g>
    <g id="ytick_14">
     <g id="line2d_45">
      <path d="M 351.735 68.306854 
L 486.9075 68.306854 
" clip-path="url(#pebeb81dcca)" style="fill: none; stroke: #cccccc; stroke-linecap: round"/>
     </g>
    </g>
    <g id="ytick_15">
     <g id="line2d_46">
      <path d="M 351.735 36.863576 
L 486.9075 36.863576 
" clip-path="url(#pebeb81dcca)" style="fill: none; stroke: #cccccc; stroke-linecap: round"/>
     </g>
    </g>
   </g>
   <g id="PathCollection_3">
    <path d="M 458.765934 111.266115 
C 460.091949 111.266115 461.363833 110.739283 462.301468 109.801649 
C 463.239102 108.864014 463.765934 107.59213 463.765934 106.266115 
C 463.765934 104.940099 463.239102 103.668215 462.301468 102.730581 
C 461.363833 101.792946 460.091949 101.266115 458.765934 101.266115 
C 457.439918 101.266115 456.168034 101.792946 455.2304 102.730581 
C 454.292765 103.668215 453.765934 104.940099 453.765934 106.266115 
C 453.765934 107.59213 454.292765 108.864014 455.2304 109.801649 
C 456.168034 110.739283 457.439918 111.266115 458.765934 111.266115 
z
" clip-path="url(#pebeb81dcca)" style="fill: #ff0000; stroke: #ffffff; stroke-width: 0.8"/>
    <path d="M 451.938282 39.393636 
C 453.264298 39.393636 454.536182 38.866805 455.473816 37.92917 
C 456.411451 36.991536 456.938282 35.719652 456.938282 34.393636 
C 456.938282 33.067621 456.411451 31.795737 455.473816 30.858102 
C 454.536182 29.920468 453.264298 29.393636 451.938282 29.393636 
C 450.612267 29.393636 449.340383 29.920468 448.402748 30.858102 
C 447.465114 31.795737 446.938282 33.067621 446.938282 34.393636 
C 446.938282 35.719652 447.465114 36.991536 448.402748 37.92917 
C 449.340383 38.866805 450.612267 39.393636 451.938282 39.393636 
z
" clip-path="url(#pebeb81dcca)" style="fill: #7fc97f; stroke: #ffffff; stroke-width: 0.8"/>
    <path d="M 444.726252 70.849479 
C 446.052268 70.849479 447.324152 70.322647 448.261786 69.385013 
C 449.199421 68.447378 449.726252 67.175494 449.726252 65.849479 
C 449.726252 64.523463 449.199421 63.251579 448.261786 62.313945 
C 447.324152 61.37631 446.052268 60.849479 444.726252 60.849479 
C 443.400237 60.849479 442.128353 61.37631 441.190718 62.313945 
C 440.253084 63.251579 439.726252 64.523463 439.726252 65.849479 
C 439.726252 67.175494 440.253084 68.447378 441.190718 69.385013 
C 442.128353 70.322647 443.400237 70.849479 444.726252 70.849479 
z
" clip-path="url(#pebeb81dcca)" style="fill: #beaed4; stroke: #ffffff; stroke-width: 0.8"/>
    <path d="M 452.670289 42.521516 
C 453.996304 42.521516 455.268188 41.994684 456.205822 41.05705 
C 457.143457 40.119415 457.670289 38.847531 457.670289 37.521516 
C 457.670289 36.1955 457.143457 34.923616 456.205822 33.985982 
C 455.268188 33.048347 453.996304 32.521516 452.670289 32.521516 
C 451.344273 32.521516 450.072389 33.048347 449.134755 33.985982 
C 448.19712 34.923616 447.670289 36.1955 447.670289 37.521516 
C 447.670289 38.847531 448.19712 40.119415 449.134755 41.05705 
C 450.072389 41.994684 451.344273 42.521516 452.670289 42.521516 
z
" clip-path="url(#pebeb81dcca)" style="fill: #fdc086; stroke: #ffffff; stroke-width: 0.8"/>
    <path d="M 451.938282 39.393636 
C 453.264298 39.393636 454.536182 38.866805 455.473816 37.92917 
C 456.411451 36.991536 456.938282 35.719652 456.938282 34.393636 
C 456.938282 33.067621 456.411451 31.795737 455.473816 30.858102 
C 454.536182 29.920468 453.264298 29.393636 451.938282 29.393636 
C 450.612267 29.393636 449.340383 29.920468 448.402748 30.858102 
C 447.465114 31.795737 446.938282 33.067621 446.938282 34.393636 
C 446.938282 35.719652 447.465114 36.991536 448.402748 37.92917 
C 449.340383 38.866805 450.612267 39.393636 451.938282 39.393636 
z
" clip-path="url(#pebeb81dcca)" style="fill: #ffff99; stroke: #ffffff; stroke-width: 0.8"/>
    <path d="M 444.726252 70.849479 
C 446.052268 70.849479 447.324152 70.322647 448.261786 69.385013 
C 449.199421 68.447378 449.726252 67.175494 449.726252 65.849479 
C 449.726252 64.523463 449.199421 63.251579 448.261786 62.313945 
C 447.324152 61.37631 446.052268 60.849479 444.726252 60.849479 
C 443.400237 60.849479 442.128353 61.37631 441.190718 62.313945 
C 440.253084 63.251579 439.726252 64.523463 439.726252 65.849479 
C 439.726252 67.175494 440.253084 68.447378 441.190718 69.385013 
C 442.128353 70.322647 443.400237 70.849479 444.726252 70.849479 
z
" clip-path="url(#pebeb81dcca)" style="fill: #386cb0; stroke: #ffffff; stroke-width: 0.8"/>
    <path d="M 452.670289 42.521516 
C 453.996304 42.521516 455.268188 41.994684 456.205822 41.05705 
C 457.143457 40.119415 457.670289 38.847531 457.670289 37.521516 
C 457.670289 36.1955 457.143457 34.923616 456.205822 33.985982 
C 455.268188 33.048347 453.996304 32.521516 452.670289 32.521516 
C 451.344273 32.521516 450.072389 33.048347 449.134755 33.985982 
C 448.19712 34.923616 447.670289 36.1955 447.670289 37.521516 
C 447.670289 38.847531 448.19712 40.119415 449.134755 41.05705 
C 450.072389 41.994684 451.344273 42.521516 452.670289 42.521516 
z
" clip-path="url(#pebeb81dcca)" style="fill: #f0027f; stroke: #ffffff; stroke-width: 0.8"/>
    <path d="M 478.263295 142.974561 
L 480.763295 140.474561 
L 483.263295 142.974561 
L 485.763295 140.474561 
L 483.263295 137.974561 
L 485.763295 135.474561 
L 483.263295 132.974561 
L 480.763295 135.474561 
L 478.263295 132.974561 
L 475.763295 135.474561 
L 478.263295 137.974561 
L 475.763295 140.474561 
z
" clip-path="url(#pebeb81dcca)" style="fill: #ff0000; stroke: #ffffff; stroke-width: 0.8"/>
    <path d="M 464.131382 51.052095 
L 466.631382 48.552095 
L 469.131382 51.052095 
L 471.631382 48.552095 
L 469.131382 46.052095 
L 471.631382 43.552095 
L 469.131382 41.052095 
L 466.631382 43.552095 
L 464.131382 41.052095 
L 461.631382 43.552095 
L 464.131382 46.052095 
L 461.631382 48.552095 
z
" clip-path="url(#pebeb81dcca)" style="fill: #7fc97f; stroke: #ffffff; stroke-width: 0.8"/>
    <path d="M 451.231527 96.390547 
L 453.731527 93.890547 
L 456.231527 96.390547 
L 458.731527 93.890547 
L 456.231527 91.390547 
L 458.731527 88.890547 
L 456.231527 86.390547 
L 453.731527 88.890547 
L 451.231527 86.390547 
L 448.731527 88.890547 
L 451.231527 91.390547 
L 448.731527 93.890547 
z
" clip-path="url(#pebeb81dcca)" style="fill: #beaed4; stroke: #ffffff; stroke-width: 0.8"/>
    <path d="M 464.967977 51.052095 
L 467.467977 48.552095 
L 469.967977 51.052095 
L 472.467977 48.552095 
L 469.967977 46.052095 
L 472.467977 43.552095 
L 469.967977 41.052095 
L 467.467977 43.552095 
L 464.967977 41.052095 
L 462.467977 43.552095 
L 464.967977 46.052095 
L 462.467977 48.552095 
z
" clip-path="url(#pebeb81dcca)" style="fill: #fdc086; stroke: #ffffff; stroke-width: 0.8"/>
    <path d="M 464.131382 51.052095 
L 466.631382 48.552095 
L 469.131382 51.052095 
L 471.631382 48.552095 
L 469.131382 46.052095 
L 471.631382 43.552095 
L 469.131382 41.052095 
L 466.631382 43.552095 
L 464.131382 41.052095 
L 461.631382 43.552095 
L 464.131382 46.052095 
L 461.631382 48.552095 
z
" clip-path="url(#pebeb81dcca)" style="fill: #ffff99; stroke: #ffffff; stroke-width: 0.8"/>
    <path d="M 451.231527 96.390547 
L 453.731527 93.890547 
L 456.231527 96.390547 
L 458.731527 93.890547 
L 456.231527 91.390547 
L 458.731527 88.890547 
L 456.231527 86.390547 
L 453.731527 88.890547 
L 451.231527 86.390547 
L 448.731527 88.890547 
L 451.231527 91.390547 
L 448.731527 93.890547 
z
" clip-path="url(#pebeb81dcca)" style="fill: #386cb0; stroke: #ffffff; stroke-width: 0.8"/>
    <path d="M 464.967977 51.052095 
L 467.467977 48.552095 
L 469.967977 51.052095 
L 472.467977 48.552095 
L 469.967977 46.052095 
L 472.467977 43.552095 
L 469.967977 41.052095 
L 467.467977 43.552095 
L 464.967977 41.052095 
L 462.467977 43.552095 
L 464.967977 46.052095 
L 462.467977 48.552095 
z
" clip-path="url(#pebeb81dcca)" style="fill: #f0027f; stroke: #ffffff; stroke-width: 0.8"/>
   </g>
   <g id="line2d_47">
    <path d="M 458.765934 106.266115 
L 480.763295 137.974561 
" clip-path="url(#pebeb81dcca)" style="fill: none; stroke: #808080; stroke-opacity: 0.2; stroke-width: 1.5; stroke-linecap: round"/>
   </g>
   <g id="line2d_48">
    <path d="M 451.938282 34.393636 
L 466.631382 46.052095 
" clip-path="url(#pebeb81dcca)" style="fill: none; stroke: #808080; stroke-opacity: 0.2; stroke-width: 1.5; stroke-linecap: round"/>
   </g>
   <g id="line2d_49">
    <path d="M 444.726252 65.849479 
L 453.731527 91.390547 
" clip-path="url(#pebeb81dcca)" style="fill: none; stroke: #808080; stroke-opacity: 0.2; stroke-width: 1.5; stroke-linecap: round"/>
   </g>
   <g id="line2d_50">
    <path d="M 452.670289 37.521516 
L 467.467977 46.052095 
" clip-path="url(#pebeb81dcca)" style="fill: none; stroke: #808080; stroke-opacity: 0.2; stroke-width: 1.5; stroke-linecap: round"/>
   </g>
   <g id="line2d_51">
    <path d="M 451.938282 34.393636 
L 466.631382 46.052095 
" clip-path="url(#pebeb81dcca)" style="fill: none; stroke: #808080; stroke-opacity: 0.2; stroke-width: 1.5; stroke-linecap: round"/>
   </g>
   <g id="line2d_52">
    <path d="M 444.726252 65.849479 
L 453.731527 91.390547 
" clip-path="url(#pebeb81dcca)" style="fill: none; stroke: #808080; stroke-opacity: 0.2; stroke-width: 1.5; stroke-linecap: round"/>
   </g>
   <g id="line2d_53">
    <path d="M 452.670289 37.521516 
L 467.467977 46.052095 
" clip-path="url(#pebeb81dcca)" style="fill: none; stroke: #808080; stroke-opacity: 0.2; stroke-width: 1.5; stroke-linecap: round"/>
   </g>
   <g id="patch_23">
    <path d="M 351.735 166.98 
L 351.735 28.08 
" style="fill: none; stroke: #cccccc; stroke-width: 1.25; stroke-linejoin: miter; stroke-linecap: square"/>
   </g>
   <g id="patch_24">
    <path d="M 351.735 166.98 
L 486.9075 166.98 
" style="fill: none; stroke: #cccccc; stroke-width: 1.25; stroke-linejoin: miter; stroke-linecap: square"/>
   </g>
   <g id="patch_25">
    <path d="M 459.907154 107.911145 
Q 469.766213 122.122642 478.350703 134.496891 
" style="fill: none; opacity: 0.2; stroke: #808080; stroke-width: 2; stroke-linecap: round"/>
    <path d="M 477.586622 129.185001 
L 478.350703 134.496891 
L 473.642742 131.921021 
" style="fill: none; opacity: 0.2; stroke: #808080; stroke-width: 2; stroke-linecap: round"/>
   </g>
   <g id="patch_26">
    <path d="M 453.505881 35.637471 
Q 459.285139 40.223109 463.312752 43.418878 
" style="fill: none; opacity: 0.2; stroke: #808080; stroke-width: 2; stroke-linecap: round"/>
    <path d="M 461.044389 38.555286 
L 463.312752 43.418878 
L 458.06086 42.315413 
" style="fill: none; opacity: 0.2; stroke: #808080; stroke-width: 2; stroke-linecap: round"/>
   </g>
   <g id="patch_27">
    <path d="M 445.391315 67.735752 
Q 449.229014 78.620365 452.323181 87.396149 
" style="fill: none; opacity: 0.2; stroke: #808080; stroke-width: 2; stroke-linecap: round"/>
    <path d="M 452.990531 82.071241 
L 452.323181 87.396149 
L 448.463665 83.667325 
" style="fill: none; opacity: 0.2; stroke: #808080; stroke-width: 2; stroke-linecap: round"/>
   </g>
   <g id="patch_28">
    <path d="M 454.40078 38.51911 
Q 460.06823 41.786285 463.79846 43.93669 
" style="fill: none; opacity: 0.2; stroke: #808080; stroke-width: 2; stroke-linecap: round"/>
    <path d="M 460.838616 39.460159 
L 463.79846 43.93669 
L 458.441329 43.618646 
" style="fill: none; opacity: 0.2; stroke: #808080; stroke-width: 2; stroke-linecap: round"/>
   </g>
   <g id="patch_29">
    <path d="M 453.505881 35.637471 
Q 459.285139 40.223109 463.312752 43.418878 
" style="fill: none; opacity: 0.2; stroke: #808080; stroke-width: 2; stroke-linecap: round"/>
    <path d="M 461.044389 38.555286 
L 463.312752 43.418878 
L 458.06086 42.315413 
" style="fill: none; opacity: 0.2; stroke: #808080; stroke-width: 2; stroke-linecap: round"/>
   </g>
   <g id="patch_30">
    <path d="M 445.391315 67.735752 
Q 449.229014 78.620365 452.323181 87.396149 
" style="fill: none; opacity: 0.2; stroke: #808080; stroke-width: 2; stroke-linecap: round"/>
    <path d="M 452.990531 82.071241 
L 452.323181 87.396149 
L 448.463665 83.667325 
" style="fill: none; opacity: 0.2; stroke: #808080; stroke-width: 2; stroke-linecap: round"/>
   </g>
   <g id="patch_31">
    <path d="M 454.40078 38.51911 
Q 460.06823 41.786285 463.79846 43.93669 
" style="fill: none; opacity: 0.2; stroke: #808080; stroke-width: 2; stroke-linecap: round"/>
    <path d="M 460.838616 39.460159 
L 463.79846 43.93669 
L 458.441329 43.618646 
" style="fill: none; opacity: 0.2; stroke: #808080; stroke-width: 2; stroke-linecap: round"/>
   </g>
   <g id="text_18">
    <!-- MBV2 -->
    <g style="fill: #262626" transform="translate(402.293437 22.08) scale(0.12 -0.12)">
     <defs>
      <path id="DejaVuSans-4d" d="M 628 4666 
L 1569 4666 
L 2759 1491 
L 3956 4666 
L 4897 4666 
L 4897 0 
L 4281 0 
L 4281 4097 
L 3078 897 
L 2444 897 
L 1241 4097 
L 1241 0 
L 628 0 
L 628 4666 
z
" transform="scale(0.015625)"/>
      <path id="DejaVuSans-42" d="M 1259 2228 
L 1259 519 
L 2272 519 
Q 2781 519 3026 730 
Q 3272 941 3272 1375 
Q 3272 1813 3026 2020 
Q 2781 2228 2272 2228 
L 1259 2228 
z
M 1259 4147 
L 1259 2741 
L 2194 2741 
Q 2656 2741 2882 2914 
Q 3109 3088 3109 3444 
Q 3109 3797 2882 3972 
Q 2656 4147 2194 4147 
L 1259 4147 
z
M 628 4666 
L 2241 4666 
Q 2963 4666 3353 4366 
Q 3744 4066 3744 3513 
Q 3744 3084 3544 2831 
Q 3344 2578 2956 2516 
Q 3422 2416 3680 2098 
Q 3938 1781 3938 1306 
Q 3938 681 3513 340 
Q 3088 0 2303 0 
L 628 0 
L 628 4666 
z
" transform="scale(0.015625)"/>
      <path id="DejaVuSans-56" d="M 1831 0 
L 50 4666 
L 709 4666 
L 2188 738 
L 3669 4666 
L 4325 4666 
L 2547 0 
L 1831 0 
z
" transform="scale(0.015625)"/>
     </defs>
     <use xlink:href="#DejaVuSans-4d"/>
     <use xlink:href="#DejaVuSans-42" x="86.279297"/>
     <use xlink:href="#DejaVuSans-56" x="151.757812"/>
     <use xlink:href="#DejaVuSans-32" x="220.166016"/>
    </g>
   </g>
  </g>
  <g id="axes_4">
   <g id="patch_32">
    <path d="M 499.8675 166.98 
L 635.04 166.98 
L 635.04 28.08 
L 499.8675 28.08 
z
" style="fill: #ffffff"/>
   </g>
   <g id="matplotlib.axis_7">
    <g id="xtick_55">
     <g id="line2d_54">
      <path d="M 559.556205 166.98 
L 559.556205 28.08 
" clip-path="url(#p608181bebd)" style="fill: none; stroke: #cccccc; stroke-linecap: round"/>
     </g>
     <g id="text_19">
      <!-- $\mathdefault{10^{6}}$ -->
      <g style="fill: #262626" transform="translate(549.876205 184.838281) scale(0.11 -0.11)">
       <use xlink:href="#DejaVuSans-31" transform="translate(0 0.765625)"/>
       <use xlink:href="#DejaVuSans-30" transform="translate(63.623047 0.765625)"/>
       <use xlink:href="#DejaVuSans-36" transform="translate(128.203125 39.046875) scale(0.7)"/>
      </g>
     </g>
    </g>
    <g id="xtick_56">
     <g id="line2d_55">
      <path d="M 620.230542 166.98 
L 620.230542 28.08 
" clip-path="url(#p608181bebd)" style="fill: none; stroke: #cccccc; stroke-linecap: round"/>
     </g>
     <g id="text_20">
      <!-- $\mathdefault{10^{7}}$ -->
      <g style="fill: #262626" transform="translate(610.550542 184.838281) scale(0.11 -0.11)">
       <use xlink:href="#DejaVuSans-31" transform="translate(0 0.684375)"/>
       <use xlink:href="#DejaVuSans-30" transform="translate(63.623047 0.684375)"/>
       <use xlink:href="#DejaVuSans-37" transform="translate(128.203125 38.965625) scale(0.7)"/>
      </g>
     </g>
    </g>
    <g id="xtick_57"/>
    <g id="xtick_58"/>
    <g id="xtick_59"/>
    <g id="xtick_60"/>
    <g id="xtick_61"/>
    <g id="xtick_62"/>
    <g id="xtick_63"/>
    <g id="xtick_64"/>
    <g id="xtick_65"/>
    <g id="xtick_66"/>
    <g id="xtick_67"/>
    <g id="xtick_68"/>
    <g id="xtick_69"/>
    <g id="xtick_70"/>
    <g id="xtick_71"/>
    <g id="xtick_72"/>
    <g id="text_21">
     <!-- Cell Writes -->
     <g style="fill: #262626" transform="translate(535.365937 200.244063) scale(0.12 -0.12)">
      <use xlink:href="#DejaVuSans-43"/>
      <use xlink:href="#DejaVuSans-65" x="69.824219"/>
      <use xlink:href="#DejaVuSans-6c" x="131.347656"/>
      <use xlink:href="#DejaVuSans-6c" x="159.130859"/>
      <use xlink:href="#DejaVuSans-20" x="186.914062"/>
      <use xlink:href="#DejaVuSans-57" x="218.701172"/>
      <use xlink:href="#DejaVuSans-72" x="313.078125"/>
      <use xlink:href="#DejaVuSans-69" x="354.191406"/>
      <use xlink:href="#DejaVuSans-74" x="381.974609"/>
      <use xlink:href="#DejaVuSans-65" x="421.183594"/>
      <use xlink:href="#DejaVuSans-73" x="482.707031"/>
     </g>
    </g>
   </g>
   <g id="matplotlib.axis_8">
    <g id="ytick_16">
     <g id="line2d_56">
      <path d="M 499.8675 162.636686 
L 635.04 162.636686 
" clip-path="url(#p608181bebd)" style="fill: none; stroke: #cccccc; stroke-linecap: round"/>
     </g>
    </g>
    <g id="ytick_17">
     <g id="line2d_57">
      <path d="M 499.8675 131.193409 
L 635.04 131.193409 
" clip-path="url(#p608181bebd)" style="fill: none; stroke: #cccccc; stroke-linecap: round"/>
     </g>
    </g>
    <g id="ytick_18">
     <g id="line2d_58">
      <path d="M 499.8675 99.750131 
L 635.04 99.750131 
" clip-path="url(#p608181bebd)" style="fill: none; stroke: #cccccc; stroke-linecap: round"/>
     </g>
    </g>
    <g id="ytick_19">
     <g id="line2d_59">
      <path d="M 499.8675 68.306854 
L 635.04 68.306854 
" clip-path="url(#p608181bebd)" style="fill: none; stroke: #cccccc; stroke-linecap: round"/>
     </g>
    </g>
    <g id="ytick_20">
     <g id="line2d_60">
      <path d="M 499.8675 36.863576 
L 635.04 36.863576 
" clip-path="url(#p608181bebd)" style="fill: none; stroke: #cccccc; stroke-linecap: round"/>
     </g>
    </g>
   </g>
   <g id="PathCollection_4">
    <path d="M 560.806091 151.989254 
C 562.132106 151.989254 563.40399 151.462423 564.341625 150.524788 
C 565.279259 149.587154 565.806091 148.31527 565.806091 146.989254 
C 565.806091 145.663239 565.279259 144.391355 564.341625 143.453721 
C 563.40399 142.516086 562.132106 141.989254 560.806091 141.989254 
C 559.480075 141.989254 558.208192 142.516086 557.270557 143.453721 
C 556.332922 144.391355 555.806091 145.663239 555.806091 146.989254 
C 555.806091 148.31527 556.332922 149.587154 557.270557 150.524788 
C 558.208192 151.462423 559.480075 151.989254 560.806091 151.989254 
z
" clip-path="url(#p608181bebd)" style="fill: #ff0000; stroke: #ffffff; stroke-width: 0.8"/>
    <path d="M 534.96072 50.280948 
C 536.286736 50.280948 537.55862 49.754116 538.496254 48.816482 
C 539.433889 47.878847 539.96072 46.606963 539.96072 45.280948 
C 539.96072 43.954932 539.433889 42.683049 538.496254 41.745414 
C 537.55862 40.807779 536.286736 40.280948 534.96072 40.280948 
C 533.634705 40.280948 532.362821 40.807779 531.425187 41.745414 
C 530.487552 42.683049 529.96072 43.954932 529.96072 45.280948 
C 529.96072 46.606963 530.487552 47.878847 531.425187 48.816482 
C 532.362821 49.754116 533.634705 50.280948 534.96072 50.280948 
z
" clip-path="url(#p608181bebd)" style="fill: #7fc97f; stroke: #ffffff; stroke-width: 0.8"/>
    <path d="M 516.695925 50.280948 
C 518.02194 50.280948 519.293824 49.754116 520.231459 48.816482 
C 521.169093 47.878847 521.695925 46.606963 521.695925 45.280948 
C 521.695925 43.954932 521.169093 42.683049 520.231459 41.745414 
C 519.293824 40.807779 518.02194 40.280948 516.695925 40.280948 
C 515.369909 40.280948 514.098026 40.807779 513.160391 41.745414 
C 512.222757 42.683049 511.695925 43.954932 511.695925 45.280948 
C 511.695925 46.606963 512.222757 47.878847 513.160391 48.816482 
C 514.098026 49.754116 515.369909 50.280948 516.695925 50.280948 
z
" clip-path="url(#p608181bebd)" style="fill: #beaed4; stroke: #ffffff; stroke-width: 0.8"/>
    <path d="M 534.96072 50.280948 
C 536.286736 50.280948 537.55862 49.754116 538.496254 48.816482 
C 539.433889 47.878847 539.96072 46.606963 539.96072 45.280948 
C 539.96072 43.954932 539.433889 42.683049 538.496254 41.745414 
C 537.55862 40.807779 536.286736 40.280948 534.96072 40.280948 
C 533.634705 40.280948 532.362821 40.807779 531.425187 41.745414 
C 530.487552 42.683049 529.96072 43.954932 529.96072 45.280948 
C 529.96072 46.606963 530.487552 47.878847 531.425187 48.816482 
C 532.362821 49.754116 533.634705 50.280948 534.96072 50.280948 
z
" clip-path="url(#p608181bebd)" style="fill: #fdc086; stroke: #ffffff; stroke-width: 0.8"/>
    <path d="M 534.96072 50.280948 
C 536.286736 50.280948 537.55862 49.754116 538.496254 48.816482 
C 539.433889 47.878847 539.96072 46.606963 539.96072 45.280948 
C 539.96072 43.954932 539.433889 42.683049 538.496254 41.745414 
C 537.55862 40.807779 536.286736 40.280948 534.96072 40.280948 
C 533.634705 40.280948 532.362821 40.807779 531.425187 41.745414 
C 530.487552 42.683049 529.96072 43.954932 529.96072 45.280948 
C 529.96072 46.606963 530.487552 47.878847 531.425187 48.816482 
C 532.362821 49.754116 533.634705 50.280948 534.96072 50.280948 
z
" clip-path="url(#p608181bebd)" style="fill: #ffff99; stroke: #ffffff; stroke-width: 0.8"/>
    <path d="M 516.695925 50.280948 
C 518.02194 50.280948 519.293824 49.754116 520.231459 48.816482 
C 521.169093 47.878847 521.695925 46.606963 521.695925 45.280948 
C 521.695925 43.954932 521.169093 42.683049 520.231459 41.745414 
C 519.293824 40.807779 518.02194 40.280948 516.695925 40.280948 
C 515.369909 40.280948 514.098026 40.807779 513.160391 41.745414 
C 512.222757 42.683049 511.695925 43.954932 511.695925 45.280948 
C 511.695925 46.606963 512.222757 47.878847 513.160391 48.816482 
C 514.098026 49.754116 515.369909 50.280948 516.695925 50.280948 
z
" clip-path="url(#p608181bebd)" style="fill: #386cb0; stroke: #ffffff; stroke-width: 0.8"/>
    <path d="M 534.96072 50.280948 
C 536.286736 50.280948 537.55862 49.754116 538.496254 48.816482 
C 539.433889 47.878847 539.96072 46.606963 539.96072 45.280948 
C 539.96072 43.954932 539.433889 42.683049 538.496254 41.745414 
C 537.55862 40.807779 536.286736 40.280948 534.96072 40.280948 
C 533.634705 40.280948 532.362821 40.807779 531.425187 41.745414 
C 530.487552 42.683049 529.96072 43.954932 529.96072 45.280948 
C 529.96072 46.606963 530.487552 47.878847 531.425187 48.816482 
C 532.362821 49.754116 533.634705 50.280948 534.96072 50.280948 
z
" clip-path="url(#p608181bebd)" style="fill: #f0027f; stroke: #ffffff; stroke-width: 0.8"/>
    <path d="M 587.255107 162.302334 
L 589.755107 159.802334 
L 592.255107 162.302334 
L 594.755107 159.802334 
L 592.255107 157.302334 
L 594.755107 154.802334 
L 592.255107 152.302334 
L 589.755107 154.802334 
L 587.255107 152.302334 
L 584.755107 154.802334 
L 587.255107 157.302334 
L 584.755107 159.802334 
z
" clip-path="url(#p608181bebd)" style="fill: #ff0000; stroke: #ffffff; stroke-width: 0.8"/>
    <path d="M 540.041295 108.958817 
L 542.541295 106.458817 
L 545.041295 108.958817 
L 547.541295 106.458817 
L 545.041295 103.958817 
L 547.541295 101.458817 
L 545.041295 98.958817 
L 542.541295 101.458817 
L 540.041295 98.958817 
L 537.541295 101.458817 
L 540.041295 103.958817 
L 537.541295 106.458817 
z
" clip-path="url(#p608181bebd)" style="fill: #7fc97f; stroke: #ffffff; stroke-width: 0.8"/>
    <path d="M 540.041295 108.958817 
L 542.541295 106.458817 
L 545.041295 108.958817 
L 547.541295 106.458817 
L 545.041295 103.958817 
L 547.541295 101.458817 
L 545.041295 98.958817 
L 542.541295 101.458817 
L 540.041295 98.958817 
L 537.541295 101.458817 
L 540.041295 103.958817 
L 537.541295 106.458817 
z
" clip-path="url(#p608181bebd)" style="fill: #beaed4; stroke: #ffffff; stroke-width: 0.8"/>
    <path d="M 540.041295 108.958817 
L 542.541295 106.458817 
L 545.041295 108.958817 
L 547.541295 106.458817 
L 545.041295 103.958817 
L 547.541295 101.458817 
L 545.041295 98.958817 
L 542.541295 101.458817 
L 540.041295 98.958817 
L 537.541295 101.458817 
L 540.041295 103.958817 
L 537.541295 106.458817 
z
" clip-path="url(#p608181bebd)" style="fill: #fdc086; stroke: #ffffff; stroke-width: 0.8"/>
    <path d="M 540.041295 108.958817 
L 542.541295 106.458817 
L 545.041295 108.958817 
L 547.541295 106.458817 
L 545.041295 103.958817 
L 547.541295 101.458817 
L 545.041295 98.958817 
L 542.541295 101.458817 
L 540.041295 98.958817 
L 537.541295 101.458817 
L 540.041295 103.958817 
L 537.541295 106.458817 
z
" clip-path="url(#p608181bebd)" style="fill: #ffff99; stroke: #ffffff; stroke-width: 0.8"/>
    <path d="M 540.041295 108.958817 
L 542.541295 106.458817 
L 545.041295 108.958817 
L 547.541295 106.458817 
L 545.041295 103.958817 
L 547.541295 101.458817 
L 545.041295 98.958817 
L 542.541295 101.458817 
L 540.041295 98.958817 
L 537.541295 101.458817 
L 540.041295 103.958817 
L 537.541295 106.458817 
z
" clip-path="url(#p608181bebd)" style="fill: #386cb0; stroke: #ffffff; stroke-width: 0.8"/>
    <path d="M 540.041295 108.958817 
L 542.541295 106.458817 
L 545.041295 108.958817 
L 547.541295 106.458817 
L 545.041295 103.958817 
L 547.541295 101.458817 
L 545.041295 98.958817 
L 542.541295 101.458817 
L 540.041295 98.958817 
L 537.541295 101.458817 
L 540.041295 103.958817 
L 537.541295 106.458817 
z
" clip-path="url(#p608181bebd)" style="fill: #f0027f; stroke: #ffffff; stroke-width: 0.8"/>
   </g>
   <g id="line2d_61">
    <path d="M 560.806091 146.989254 
L 589.755107 157.302334 
" clip-path="url(#p608181bebd)" style="fill: none; stroke: #808080; stroke-opacity: 0.2; stroke-width: 1.5; stroke-linecap: round"/>
   </g>
   <g id="line2d_62">
    <path d="M 534.96072 45.280948 
L 542.541295 103.958817 
" clip-path="url(#p608181bebd)" style="fill: none; stroke: #808080; stroke-opacity: 0.2; stroke-width: 1.5; stroke-linecap: round"/>
   </g>
   <g id="line2d_63">
    <path d="M 516.695925 45.280948 
L 542.541295 103.958817 
" clip-path="url(#p608181bebd)" style="fill: none; stroke: #808080; stroke-opacity: 0.2; stroke-width: 1.5; stroke-linecap: round"/>
   </g>
   <g id="line2d_64">
    <path d="M 534.96072 45.280948 
L 542.541295 103.958817 
" clip-path="url(#p608181bebd)" style="fill: none; stroke: #808080; stroke-opacity: 0.2; stroke-width: 1.5; stroke-linecap: round"/>
   </g>
   <g id="line2d_65">
    <path d="M 534.96072 45.280948 
L 542.541295 103.958817 
" clip-path="url(#p608181bebd)" style="fill: none; stroke: #808080; stroke-opacity: 0.2; stroke-width: 1.5; stroke-linecap: round"/>
   </g>
   <g id="line2d_66">
    <path d="M 516.695925 45.280948 
L 542.541295 103.958817 
" clip-path="url(#p608181bebd)" style="fill: none; stroke: #808080; stroke-opacity: 0.2; stroke-width: 1.5; stroke-linecap: round"/>
   </g>
   <g id="line2d_67">
    <path d="M 534.96072 45.280948 
L 542.541295 103.958817 
" clip-path="url(#p608181bebd)" style="fill: none; stroke: #808080; stroke-opacity: 0.2; stroke-width: 1.5; stroke-linecap: round"/>
   </g>
   <g id="patch_33">
    <path d="M 499.8675 166.98 
L 499.8675 28.08 
" style="fill: none; stroke: #cccccc; stroke-width: 1.25; stroke-linejoin: miter; stroke-linecap: square"/>
   </g>
   <g id="patch_34">
    <path d="M 499.8675 166.98 
L 635.04 166.98 
" style="fill: none; stroke: #cccccc; stroke-width: 1.25; stroke-linejoin: miter; stroke-linecap: square"/>
   </g>
   <g id="patch_35">
    <path d="M 562.689615 147.660259 
Q 575.279099 152.14526 585.76219 155.879859 
" style="fill: none; opacity: 0.2; stroke: #808080; stroke-width: 2; stroke-linecap: round"/>
    <path d="M 582.045967 152.008207 
L 585.76219 155.879859 
L 580.435134 156.529845 
" style="fill: none; opacity: 0.2; stroke: #808080; stroke-width: 2; stroke-linecap: round"/>
   </g>
   <g id="patch_36">
    <path d="M 535.216583 47.261469 
Q 538.750855 74.618701 541.998631 99.758294 
" style="fill: none; opacity: 0.2; stroke: #808080; stroke-width: 2; stroke-linecap: round"/>
    <path d="M 543.763851 94.690356 
L 541.998631 99.758294 
L 539.003412 95.305355 
" style="fill: none; opacity: 0.2; stroke: #808080; stroke-width: 2; stroke-linecap: round"/>
   </g>
   <g id="patch_37">
    <path d="M 517.502015 47.11105 
Q 529.618955 74.620664 540.834551 100.083921 
" style="fill: none; opacity: 0.2; stroke: #808080; stroke-width: 2; stroke-linecap: round"/>
    <path d="M 541.096087 94.723734 
L 540.834551 100.083921 
L 536.703324 96.65858 
" style="fill: none; opacity: 0.2; stroke: #808080; stroke-width: 2; stroke-linecap: round"/>
   </g>
   <g id="patch_38">
    <path d="M 535.216583 47.261469 
Q 538.750855 74.618701 541.998631 99.758294 
" style="fill: none; opacity: 0.2; stroke: #808080; stroke-width: 2; stroke-linecap: round"/>
    <path d="M 543.763851 94.690356 
L 541.998631 99.758294 
L 539.003412 95.305355 
" style="fill: none; opacity: 0.2; stroke: #808080; stroke-width: 2; stroke-linecap: round"/>
   </g>
   <g id="patch_39">
    <path d="M 535.216583 47.261469 
Q 538.750855 74.618701 541.998631 99.758294 
" style="fill: none; opacity: 0.2; stroke: #808080; stroke-width: 2; stroke-linecap: round"/>
    <path d="M 543.763851 94.690356 
L 541.998631 99.758294 
L 539.003412 95.305355 
" style="fill: none; opacity: 0.2; stroke: #808080; stroke-width: 2; stroke-linecap: round"/>
   </g>
   <g id="patch_40">
    <path d="M 517.502015 47.11105 
Q 529.618955 74.620664 540.834551 100.083921 
" style="fill: none; opacity: 0.2; stroke: #808080; stroke-width: 2; stroke-linecap: round"/>
    <path d="M 541.096087 94.723734 
L 540.834551 100.083921 
L 536.703324 96.65858 
" style="fill: none; opacity: 0.2; stroke: #808080; stroke-width: 2; stroke-linecap: round"/>
   </g>
   <g id="patch_41">
    <path d="M 535.216583 47.261469 
Q 538.750855 74.618701 541.998631 99.758294 
" style="fill: none; opacity: 0.2; stroke: #808080; stroke-width: 2; stroke-linecap: round"/>
    <path d="M 543.763851 94.690356 
L 541.998631 99.758294 
L 539.003412 95.305355 
" style="fill: none; opacity: 0.2; stroke: #808080; stroke-width: 2; stroke-linecap: round"/>
   </g>
   <g id="text_22">
    <!-- ResNet -->
    <g style="fill: #262626" transform="translate(546.204375 22.08) scale(0.12 -0.12)">
     <defs>
      <path id="DejaVuSans-52" d="M 2841 2188 
Q 3044 2119 3236 1894 
Q 3428 1669 3622 1275 
L 4263 0 
L 3584 0 
L 2988 1197 
Q 2756 1666 2539 1819 
Q 2322 1972 1947 1972 
L 1259 1972 
L 1259 0 
L 628 0 
L 628 4666 
L 2053 4666 
Q 2853 4666 3247 4331 
Q 3641 3997 3641 3322 
Q 3641 2881 3436 2590 
Q 3231 2300 2841 2188 
z
M 1259 4147 
L 1259 2491 
L 2053 2491 
Q 2509 2491 2742 2702 
Q 2975 2913 2975 3322 
Q 2975 3731 2742 3939 
Q 2509 4147 2053 4147 
L 1259 4147 
z
" transform="scale(0.015625)"/>
     </defs>
     <use xlink:href="#DejaVuSans-52"/>
     <use xlink:href="#DejaVuSans-65" x="64.982422"/>
     <use xlink:href="#DejaVuSans-73" x="126.505859"/>
     <use xlink:href="#DejaVuSans-4e" x="178.605469"/>
     <use xlink:href="#DejaVuSans-65" x="253.410156"/>
     <use xlink:href="#DejaVuSans-74" x="314.933594"/>
    </g>
   </g>
  </g>
  <g id="legend_1">
   <g id="line2d_68"/>
   <g id="text_23">
    <!-- PackerArgs -->
    <g style="fill: #262626" transform="translate(695.18 18.258281) scale(0.11 -0.11)">
     <defs>
      <path id="DejaVuSans-50" d="M 1259 4147 
L 1259 2394 
L 2053 2394 
Q 2494 2394 2734 2622 
Q 2975 2850 2975 3272 
Q 2975 3691 2734 3919 
Q 2494 4147 2053 4147 
L 1259 4147 
z
M 628 4666 
L 2053 4666 
Q 2838 4666 3239 4311 
Q 3641 3956 3641 3272 
Q 3641 2581 3239 2228 
Q 2838 1875 2053 1875 
L 1259 1875 
L 1259 0 
L 628 0 
L 628 4666 
z
" transform="scale(0.015625)"/>
      <path id="DejaVuSans-63" d="M 3122 3366 
L 3122 2828 
Q 2878 2963 2633 3030 
Q 2388 3097 2138 3097 
Q 1578 3097 1268 2742 
Q 959 2388 959 1747 
Q 959 1106 1268 751 
Q 1578 397 2138 397 
Q 2388 397 2633 464 
Q 2878 531 3122 666 
L 3122 134 
Q 2881 22 2623 -34 
Q 2366 -91 2075 -91 
Q 1284 -91 818 406 
Q 353 903 353 1747 
Q 353 2603 823 3093 
Q 1294 3584 2113 3584 
Q 2378 3584 2631 3529 
Q 2884 3475 3122 3366 
z
" transform="scale(0.015625)"/>
      <path id="DejaVuSans-6b" d="M 581 4863 
L 1159 4863 
L 1159 1991 
L 2875 3500 
L 3609 3500 
L 1753 1863 
L 3688 0 
L 2938 0 
L 1159 1709 
L 1159 0 
L 581 0 
L 581 4863 
z
" transform="scale(0.015625)"/>
      <path id="DejaVuSans-67" d="M 2906 1791 
Q 2906 2416 2648 2759 
Q 2391 3103 1925 3103 
Q 1463 3103 1205 2759 
Q 947 2416 947 1791 
Q 947 1169 1205 825 
Q 1463 481 1925 481 
Q 2391 481 2648 825 
Q 2906 1169 2906 1791 
z
M 3481 434 
Q 3481 -459 3084 -895 
Q 2688 -1331 1869 -1331 
Q 1566 -1331 1297 -1286 
Q 1028 -1241 775 -1147 
L 775 -588 
Q 1028 -725 1275 -790 
Q 1522 -856 1778 -856 
Q 2344 -856 2625 -561 
Q 2906 -266 2906 331 
L 2906 616 
Q 2728 306 2450 153 
Q 2172 0 1784 0 
Q 1141 0 747 490 
Q 353 981 353 1791 
Q 353 2603 747 3093 
Q 1141 3584 1784 3584 
Q 2172 3584 2450 3431 
Q 2728 3278 2906 2969 
L 2906 3500 
L 3481 3500 
L 3481 434 
z
" transform="scale(0.015625)"/>
     </defs>
     <use xlink:href="#DejaVuSans-50"/>
     <use xlink:href="#DejaVuSans-61" x="55.802734"/>
     <use xlink:href="#DejaVuSans-63" x="117.082031"/>
     <use xlink:href="#DejaVuSans-6b" x="172.0625"/>
     <use xlink:href="#DejaVuSans-65" x="226.347656"/>
     <use xlink:href="#DejaVuSans-72" x="287.871094"/>
     <use xlink:href="#DejaVuSans-41" x="328.984375"/>
     <use xlink:href="#DejaVuSans-72" x="397.392578"/>
     <use xlink:href="#DejaVuSans-67" x="436.755859"/>
     <use xlink:href="#DejaVuSans-73" x="500.232422"/>
    </g>
   </g>
   <g id="line2d_69">
    <defs>
     <path id="m147c3cb700" d="M 0 5 
C 1.326016 5 2.597899 4.473168 3.535534 3.535534 
C 4.473168 2.597899 5 1.326016 5 0 
C 5 -1.326016 4.473168 -2.597899 3.535534 -3.535534 
C 2.597899 -4.473168 1.326016 -5 0 -5 
C -1.326016 -5 -2.597899 -4.473168 -3.535534 -3.535534 
C -4.473168 -2.597899 -5 -1.326016 -5 0 
C -5 1.326016 -4.473168 2.597899 -3.535534 3.535534 
C -2.597899 4.473168 -1.326016 5 0 5 
z
"/>
    </defs>
    <g>
     <use xlink:href="#m147c3cb700" x="675.38" y="30.554219" style="fill: #ff0000"/>
    </g>
   </g>
   <g id="text_24">
    <!-- Naive -->
    <g style="fill: #262626" transform="translate(695.18 34.404219) scale(0.11 -0.11)">
     <defs>
      <path id="DejaVuSans-76" d="M 191 3500 
L 800 3500 
L 1894 563 
L 2988 3500 
L 3597 3500 
L 2284 0 
L 1503 0 
L 191 3500 
z
" transform="scale(0.015625)"/>
     </defs>
     <use xlink:href="#DejaVuSans-4e"/>
     <use xlink:href="#DejaVuSans-61" x="74.804688"/>
     <use xlink:href="#DejaVuSans-69" x="136.083984"/>
     <use xlink:href="#DejaVuSans-76" x="163.867188"/>
     <use xlink:href="#DejaVuSans-65" x="223.046875"/>
    </g>
   </g>
   <g id="line2d_70">
    <defs>
     <path id="m09101b8a68" d="M 0 5 
C 1.326016 5 2.597899 4.473168 3.535534 3.535534 
C 4.473168 2.597899 5 1.326016 5 0 
C 5 -1.326016 4.473168 -2.597899 3.535534 -3.535534 
C 2.597899 -4.473168 1.326016 -5 0 -5 
C -1.326016 -5 -2.597899 -4.473168 -3.535534 -3.535534 
C -4.473168 -2.597899 -5 -1.326016 -5 0 
C -5 1.326016 -4.473168 2.597899 -3.535534 3.535534 
C -2.597899 4.473168 -1.326016 5 0 5 
z
"/>
    </defs>
    <g>
     <use xlink:href="#m09101b8a68" x="675.38" y="46.700156" style="fill: #7fc97f"/>
    </g>
   </g>
   <g id="text_25">
    <!-- OFF_BBF_MR -->
    <g style="fill: #262626" transform="translate(695.18 50.550156) scale(0.11 -0.11)">
     <defs>
      <path id="DejaVuSans-4f" d="M 2522 4238 
Q 1834 4238 1429 3725 
Q 1025 3213 1025 2328 
Q 1025 1447 1429 934 
Q 1834 422 2522 422 
Q 3209 422 3611 934 
Q 4013 1447 4013 2328 
Q 4013 3213 3611 3725 
Q 3209 4238 2522 4238 
z
M 2522 4750 
Q 3503 4750 4090 4092 
Q 4678 3434 4678 2328 
Q 4678 1225 4090 567 
Q 3503 -91 2522 -91 
Q 1538 -91 948 565 
Q 359 1222 359 2328 
Q 359 3434 948 4092 
Q 1538 4750 2522 4750 
z
" transform="scale(0.015625)"/>
      <path id="DejaVuSans-5f" d="M 3263 -1063 
L 3263 -1509 
L -63 -1509 
L -63 -1063 
L 3263 -1063 
z
" transform="scale(0.015625)"/>
     </defs>
     <use xlink:href="#DejaVuSans-4f"/>
     <use xlink:href="#DejaVuSans-46" x="78.710938"/>
     <use xlink:href="#DejaVuSans-46" x="136.230469"/>
     <use xlink:href="#DejaVuSans-5f" x="193.75"/>
     <use xlink:href="#DejaVuSans-42" x="243.75"/>
     <use xlink:href="#DejaVuSans-42" x="312.353516"/>
     <use xlink:href="#DejaVuSans-46" x="380.957031"/>
     <use xlink:href="#DejaVuSans-5f" x="438.476562"/>
     <use xlink:href="#DejaVuSans-4d" x="488.476562"/>
     <use xlink:href="#DejaVuSans-52" x="574.755859"/>
    </g>
   </g>
   <g id="line2d_71">
    <defs>
     <path id="m4eef28a175" d="M 0 5 
C 1.326016 5 2.597899 4.473168 3.535534 3.535534 
C 4.473168 2.597899 5 1.326016 5 0 
C 5 -1.326016 4.473168 -2.597899 3.535534 -3.535534 
C 2.597899 -4.473168 1.326016 -5 0 -5 
C -1.326016 -5 -2.597899 -4.473168 -3.535534 -3.535534 
C -4.473168 -2.597899 -5 -1.326016 -5 0 
C -5 1.326016 -4.473168 2.597899 -3.535534 3.535534 
C -2.597899 4.473168 -1.326016 5 0 5 
z
"/>
    </defs>
    <g>
     <use xlink:href="#m4eef28a175" x="675.38" y="63.152031" style="fill: #beaed4"/>
    </g>
   </g>
   <g id="text_26">
    <!-- OFF_BNF_MR -->
    <g style="fill: #262626" transform="translate(695.18 67.002031) scale(0.11 -0.11)">
     <use xlink:href="#DejaVuSans-4f"/>
     <use xlink:href="#DejaVuSans-46" x="78.710938"/>
     <use xlink:href="#DejaVuSans-46" x="136.230469"/>
     <use xlink:href="#DejaVuSans-5f" x="193.75"/>
     <use xlink:href="#DejaVuSans-42" x="243.75"/>
     <use xlink:href="#DejaVuSans-4e" x="312.353516"/>
     <use xlink:href="#DejaVuSans-46" x="387.158203"/>
     <use xlink:href="#DejaVuSans-5f" x="444.677734"/>
     <use xlink:href="#DejaVuSans-4d" x="494.677734"/>
     <use xlink:href="#DejaVuSans-52" x="580.957031"/>
    </g>
   </g>
   <g id="line2d_72">
    <defs>
     <path id="m7d6b3a87a7" d="M 0 5 
C 1.326016 5 2.597899 4.473168 3.535534 3.535534 
C 4.473168 2.597899 5 1.326016 5 0 
C 5 -1.326016 4.473168 -2.597899 3.535534 -3.535534 
C 2.597899 -4.473168 1.326016 -5 0 -5 
C -1.326016 -5 -2.597899 -4.473168 -3.535534 -3.535534 
C -4.473168 -2.597899 -5 -1.326016 -5 0 
C -5 1.326016 -4.473168 2.597899 -3.535534 3.535534 
C -2.597899 4.473168 -1.326016 5 0 5 
z
"/>
    </defs>
    <g>
     <use xlink:href="#m7d6b3a87a7" x="675.38" y="79.603906" style="fill: #fdc086"/>
    </g>
   </g>
   <g id="text_27">
    <!-- OFF_BFF_MR -->
    <g style="fill: #262626" transform="translate(695.18 83.453906) scale(0.11 -0.11)">
     <use xlink:href="#DejaVuSans-4f"/>
     <use xlink:href="#DejaVuSans-46" x="78.710938"/>
     <use xlink:href="#DejaVuSans-46" x="136.230469"/>
     <use xlink:href="#DejaVuSans-5f" x="193.75"/>
     <use xlink:href="#DejaVuSans-42" x="243.75"/>
     <use xlink:href="#DejaVuSans-46" x="312.353516"/>
     <use xlink:href="#DejaVuSans-46" x="369.873047"/>
     <use xlink:href="#DejaVuSans-5f" x="427.392578"/>
     <use xlink:href="#DejaVuSans-4d" x="477.392578"/>
     <use xlink:href="#DejaVuSans-52" x="563.671875"/>
    </g>
   </g>
   <g id="line2d_73">
    <defs>
     <path id="m8e17ad2f0d" d="M 0 5 
C 1.326016 5 2.597899 4.473168 3.535534 3.535534 
C 4.473168 2.597899 5 1.326016 5 0 
C 5 -1.326016 4.473168 -2.597899 3.535534 -3.535534 
C 2.597899 -4.473168 1.326016 -5 0 -5 
C -1.326016 -5 -2.597899 -4.473168 -3.535534 -3.535534 
C -4.473168 -2.597899 -5 -1.326016 -5 0 
C -5 1.326016 -4.473168 2.597899 -3.535534 3.535534 
C -2.597899 4.473168 -1.326016 5 0 5 
z
"/>
    </defs>
    <g>
     <use xlink:href="#m8e17ad2f0d" x="675.38" y="96.055781" style="fill: #ffff99"/>
    </g>
   </g>
   <g id="text_28">
    <!-- ON_BBF_MR -->
    <g style="fill: #262626" transform="translate(695.18 99.905781) scale(0.11 -0.11)">
     <use xlink:href="#DejaVuSans-4f"/>
     <use xlink:href="#DejaVuSans-4e" x="78.710938"/>
     <use xlink:href="#DejaVuSans-5f" x="153.515625"/>
     <use xlink:href="#DejaVuSans-42" x="203.515625"/>
     <use xlink:href="#DejaVuSans-42" x="272.119141"/>
     <use xlink:href="#DejaVuSans-46" x="340.722656"/>
     <use xlink:href="#DejaVuSans-5f" x="398.242188"/>
     <use xlink:href="#DejaVuSans-4d" x="448.242188"/>
     <use xlink:href="#DejaVuSans-52" x="534.521484"/>
    </g>
   </g>
   <g id="line2d_74">
    <defs>
     <path id="mf2a8fa3a11" d="M 0 5 
C 1.326016 5 2.597899 4.473168 3.535534 3.535534 
C 4.473168 2.597899 5 1.326016 5 0 
C 5 -1.326016 4.473168 -2.597899 3.535534 -3.535534 
C 2.597899 -4.473168 1.326016 -5 0 -5 
C -1.326016 -5 -2.597899 -4.473168 -3.535534 -3.535534 
C -4.473168 -2.597899 -5 -1.326016 -5 0 
C -5 1.326016 -4.473168 2.597899 -3.535534 3.535534 
C -2.597899 4.473168 -1.326016 5 0 5 
z
"/>
    </defs>
    <g>
     <use xlink:href="#mf2a8fa3a11" x="675.38" y="112.507656" style="fill: #386cb0"/>
    </g>
   </g>
   <g id="text_29">
    <!-- ON_BNF_MR -->
    <g style="fill: #262626" transform="translate(695.18 116.357656) scale(0.11 -0.11)">
     <use xlink:href="#DejaVuSans-4f"/>
     <use xlink:href="#DejaVuSans-4e" x="78.710938"/>
     <use xlink:href="#DejaVuSans-5f" x="153.515625"/>
     <use xlink:href="#DejaVuSans-42" x="203.515625"/>
     <use xlink:href="#DejaVuSans-4e" x="272.119141"/>
     <use xlink:href="#DejaVuSans-46" x="346.923828"/>
     <use xlink:href="#DejaVuSans-5f" x="404.443359"/>
     <use xlink:href="#DejaVuSans-4d" x="454.443359"/>
     <use xlink:href="#DejaVuSans-52" x="540.722656"/>
    </g>
   </g>
   <g id="line2d_75">
    <defs>
     <path id="mbcd4553b8e" d="M 0 5 
C 1.326016 5 2.597899 4.473168 3.535534 3.535534 
C 4.473168 2.597899 5 1.326016 5 0 
C 5 -1.326016 4.473168 -2.597899 3.535534 -3.535534 
C 2.597899 -4.473168 1.326016 -5 0 -5 
C -1.326016 -5 -2.597899 -4.473168 -3.535534 -3.535534 
C -4.473168 -2.597899 -5 -1.326016 -5 0 
C -5 1.326016 -4.473168 2.597899 -3.535534 3.535534 
C -2.597899 4.473168 -1.326016 5 0 5 
z
"/>
    </defs>
    <g>
     <use xlink:href="#mbcd4553b8e" x="675.38" y="128.959531" style="fill: #f0027f"/>
    </g>
   </g>
   <g id="text_30">
    <!-- ON_BFF_MR -->
    <g style="fill: #262626" transform="translate(695.18 132.809531) scale(0.11 -0.11)">
     <use xlink:href="#DejaVuSans-4f"/>
     <use xlink:href="#DejaVuSans-4e" x="78.710938"/>
     <use xlink:href="#DejaVuSans-5f" x="153.515625"/>
     <use xlink:href="#DejaVuSans-42" x="203.515625"/>
     <use xlink:href="#DejaVuSans-46" x="272.119141"/>
     <use xlink:href="#DejaVuSans-46" x="329.638672"/>
     <use xlink:href="#DejaVuSans-5f" x="387.158203"/>
     <use xlink:href="#DejaVuSans-4d" x="437.158203"/>
     <use xlink:href="#DejaVuSans-52" x="523.4375"/>
    </g>
   </g>
   <g id="line2d_76"/>
   <g id="text_31">
    <!-- core_size -->
    <g style="fill: #262626" transform="translate(695.18 149.261406) scale(0.11 -0.11)">
     <use xlink:href="#DejaVuSans-63"/>
     <use xlink:href="#DejaVuSans-6f" x="54.980469"/>
     <use xlink:href="#DejaVuSans-72" x="116.162109"/>
     <use xlink:href="#DejaVuSans-65" x="155.025391"/>
     <use xlink:href="#DejaVuSans-5f" x="216.548828"/>
     <use xlink:href="#DejaVuSans-73" x="266.548828"/>
     <use xlink:href="#DejaVuSans-69" x="318.648438"/>
     <use xlink:href="#DejaVuSans-7a" x="346.431641"/>
     <use xlink:href="#DejaVuSans-65" x="398.921875"/>
    </g>
   </g>
   <g id="line2d_77">
    <defs>
     <path id="m0cceb152fc" d="M 0 5 
C 1.326016 5 2.597899 4.473168 3.535534 3.535534 
C 4.473168 2.597899 5 1.326016 5 0 
C 5 -1.326016 4.473168 -2.597899 3.535534 -3.535534 
C 2.597899 -4.473168 1.326016 -5 0 -5 
C -1.326016 -5 -2.597899 -4.473168 -3.535534 -3.535534 
C -4.473168 -2.597899 -5 -1.326016 -5 0 
C -5 1.326016 -4.473168 2.597899 -3.535534 3.535534 
C -2.597899 4.473168 -1.326016 5 0 5 
z
"/>
    </defs>
    <g>
     <use xlink:href="#m0cceb152fc" x="675.38" y="161.863281" style="fill: #333333"/>
    </g>
   </g>
   <g id="text_32">
    <!-- (256, 256) -->
    <g style="fill: #262626" transform="translate(695.18 165.713281) scale(0.11 -0.11)">
     <defs>
      <path id="DejaVuSans-28" d="M 1984 4856 
Q 1566 4138 1362 3434 
Q 1159 2731 1159 2009 
Q 1159 1288 1364 580 
Q 1569 -128 1984 -844 
L 1484 -844 
Q 1016 -109 783 600 
Q 550 1309 550 2009 
Q 550 2706 781 3412 
Q 1013 4119 1484 4856 
L 1984 4856 
z
" transform="scale(0.015625)"/>
      <path id="DejaVuSans-35" d="M 691 4666 
L 3169 4666 
L 3169 4134 
L 1269 4134 
L 1269 2991 
Q 1406 3038 1543 3061 
Q 1681 3084 1819 3084 
Q 2600 3084 3056 2656 
Q 3513 2228 3513 1497 
Q 3513 744 3044 326 
Q 2575 -91 1722 -91 
Q 1428 -91 1123 -41 
Q 819 9 494 109 
L 494 744 
Q 775 591 1075 516 
Q 1375 441 1709 441 
Q 2250 441 2565 725 
Q 2881 1009 2881 1497 
Q 2881 1984 2565 2268 
Q 2250 2553 1709 2553 
Q 1456 2553 1204 2497 
Q 953 2441 691 2322 
L 691 4666 
z
" transform="scale(0.015625)"/>
      <path id="DejaVuSans-2c" d="M 750 794 
L 1409 794 
L 1409 256 
L 897 -744 
L 494 -744 
L 750 256 
L 750 794 
z
" transform="scale(0.015625)"/>
      <path id="DejaVuSans-29" d="M 513 4856 
L 1013 4856 
Q 1481 4119 1714 3412 
Q 1947 2706 1947 2009 
Q 1947 1309 1714 600 
Q 1481 -109 1013 -844 
L 513 -844 
Q 928 -128 1133 580 
Q 1338 1288 1338 2009 
Q 1338 2731 1133 3434 
Q 928 4138 513 4856 
z
" transform="scale(0.015625)"/>
     </defs>
     <use xlink:href="#DejaVuSans-28"/>
     <use xlink:href="#DejaVuSans-32" x="39.013672"/>
     <use xlink:href="#DejaVuSans-35" x="102.636719"/>
     <use xlink:href="#DejaVuSans-36" x="166.259766"/>
     <use xlink:href="#DejaVuSans-2c" x="229.882812"/>
     <use xlink:href="#DejaVuSans-20" x="261.669922"/>
     <use xlink:href="#DejaVuSans-32" x="293.457031"/>
     <use xlink:href="#DejaVuSans-35" x="357.080078"/>
     <use xlink:href="#DejaVuSans-36" x="420.703125"/>
     <use xlink:href="#DejaVuSans-29" x="484.326172"/>
    </g>
   </g>
   <g id="line2d_78">
    <defs>
     <path id="meb01cbc659" d="M -2.5 5 
L 0 2.5 
L 2.5 5 
L 5 2.5 
L 2.5 0 
L 5 -2.5 
L 2.5 -5 
L 0 -2.5 
L -2.5 -5 
L -5 -2.5 
L -2.5 0 
L -5 2.5 
z
"/>
    </defs>
    <g>
     <use xlink:href="#meb01cbc659" x="675.38" y="178.009219" style="fill: #333333"/>
    </g>
   </g>
   <g id="text_33">
    <!-- (512, 512) -->
    <g style="fill: #262626" transform="translate(695.18 181.859219) scale(0.11 -0.11)">
     <use xlink:href="#DejaVuSans-28"/>
     <use xlink:href="#DejaVuSans-35" x="39.013672"/>
     <use xlink:href="#DejaVuSans-31" x="102.636719"/>
     <use xlink:href="#DejaVuSans-32" x="166.259766"/>
     <use xlink:href="#DejaVuSans-2c" x="229.882812"/>
     <use xlink:href="#DejaVuSans-20" x="261.669922"/>
     <use xlink:href="#DejaVuSans-35" x="293.457031"/>
     <use xlink:href="#DejaVuSans-31" x="357.080078"/>
     <use xlink:href="#DejaVuSans-32" x="420.703125"/>
     <use xlink:href="#DejaVuSans-29" x="484.326172"/>
    </g>
   </g>
  </g>
 </g>
 <defs>
  <clipPath id="p8d454887a9">
   <rect x="55.47" y="28.08" width="135.1725" height="138.9"/>
  </clipPath>
  <clipPath id="p7fa1f67614">
   <rect x="203.6025" y="28.08" width="135.1725" height="138.9"/>
  </clipPath>
  <clipPath id="pebeb81dcca">
   <rect x="351.735" y="28.08" width="135.1725" height="138.9"/>
  </clipPath>
  <clipPath id="p608181bebd">
   <rect x="499.8675" y="28.08" width="135.1725" height="138.9"/>
  </clipPath>
 </defs>
</svg>
